M48
;GenerationSoftware,Autodesk,EAGLE,8.6.3*%
;CreationDate,2020-04-29T23:12:20Z*%
FMAT,2
ICI,OFF
METRIC,TZ,000.000
T8C0.300
T7C0.500
T6C0.610
T5C0.813
T4C1.016
T3C1.194
T2C1.321
T1C2.800
%
G90
M71
T1
X3010Y3000
X3020Y46980
X76990Y2990
X76990Y46970
T2
X42649Y6161
X30711Y18353
X36680Y20385
X9211Y6201
X21149Y6201
X21149Y18393
X9211Y18393
X15180Y20425
X63909Y18423
X42649Y18353
X30711Y6161
X51971Y18423
X57940Y20455
X51971Y6231
X63909Y6231
T3
X77085Y9250
X77085Y19410
X77085Y24490
X77085Y14330
T4
X76950Y42590
X76950Y40050
X5701Y14391
X1179Y14391
X5681Y16609
X1159Y23111
X5701Y7889
X5681Y23111
X1179Y7889
X2540Y30680
X2540Y33220
X2540Y35760
X2540Y38300
X2540Y40840
X25560Y46720
X23020Y46720
X1159Y16609
T5
X58670Y24340
X67740Y21890
X67740Y14270
X58670Y29420
X58670Y26880
X44750Y27410
X44750Y24870
X52370Y24870
X52370Y27410
X69430Y34570
X66890Y34570
X62610Y46200
X62610Y43660
X25800Y21910
X25800Y14290
X19610Y29410
X19610Y24330
X19610Y26870
X6110Y27430
X6110Y24890
X13730Y24890
X13730Y27430
X47310Y21890
X47310Y14270
X39190Y29400
X39190Y24320
X39190Y26860
X25480Y27410
X25480Y24870
X33100Y24870
X33100Y27410
X53850Y37330
X56390Y37330
T6
X48300Y31690
X53380Y31690
T7
X21570Y41670
X4870Y30620
X67100Y48500
X69300Y48500
X71400Y48500
X67100Y46300
X69300Y46400
X71400Y46400
X67100Y44300
X69300Y44300
X71400Y44300
X70050Y29080
X26360Y42340
X34750Y31920
X17200Y29240
X24190Y30470
X6730Y36990
X47680Y43930
X29560Y37670
X46600Y43930
X26370Y41130
X48600Y40930
X48770Y43940
X33380Y46320
X18990Y36920
X17750Y34170
X20560Y38540
X18790Y32690
X18980Y35800
X48860Y10340
X27550Y10380
X69390Y12380
X21460Y29500
X9240Y32980
X16680Y32930
X8050Y37410
X16800Y38740
X38590Y34880
X48600Y42080
X42340Y33260
X55290Y41560
X42340Y31100
X55290Y40410
X7930Y30370
X55290Y44250
X40580Y34950
X22720Y34210
X2100Y26140
X21560Y43340
X24300Y21230
X32890Y35320
X10860Y39750
X23910Y42450
X26310Y36190
X16690Y31800
T8
X13910Y36710
X13910Y35910
X13110Y35910
X14710Y35910
X14710Y36710
X14710Y37510
X14710Y35110
X12310Y35910
X12310Y36710
X13110Y36710
X13910Y37510
X13110Y37510
X13910Y35110
X13110Y35110
X12310Y35110
X12310Y37510
M30