G04 EAGLE Gerber X2 export*
G75*
%MOMM*%
%FSLAX34Y34*%
%LPD*%
%AMOC8*
5,1,8,0,0,1.08239X$1,22.5*%
G01*
%ADD10C,0.199134*%
%ADD11C,0.198000*%
%ADD12R,0.600000X0.600000*%
%ADD13C,0.201500*%
%ADD14R,0.900000X0.650000*%
%ADD15C,0.201166*%
%ADD16C,0.199500*%
%ADD17C,0.200000*%
%ADD18C,0.195000*%
%ADD19C,0.204000*%
%ADD20R,1.300000X1.300000*%
%ADD21C,0.199219*%
%ADD22C,0.195072*%
%ADD23C,0.174000*%
%ADD24C,0.208000*%


D10*
X97337Y439679D02*
X95263Y439679D01*
X95263Y439721D01*
X97337Y439721D01*
X97337Y439679D01*
X76337Y439679D02*
X74263Y439679D01*
X74263Y439721D01*
X76337Y439721D01*
X76337Y439679D01*
D11*
X98385Y421598D02*
X98385Y417578D01*
X94365Y417578D01*
X94365Y421598D01*
X98385Y421598D01*
X98385Y419557D02*
X94365Y419557D01*
X94365Y421536D02*
X98385Y421536D01*
X98385Y412072D02*
X98385Y408052D01*
X94365Y408052D01*
X94365Y412072D01*
X98385Y412072D01*
X98385Y410031D02*
X94365Y410031D01*
X94365Y412010D02*
X98385Y412010D01*
D12*
X96375Y410062D03*
X96375Y419588D03*
D13*
X186357Y419530D02*
X186357Y415044D01*
X186357Y419530D02*
X193343Y419530D01*
X193343Y415044D01*
X186357Y415044D01*
X186357Y417058D02*
X193343Y417058D01*
X193343Y419072D02*
X186357Y419072D01*
X186357Y430420D02*
X186357Y434906D01*
X193343Y434906D01*
X193343Y430420D01*
X186357Y430420D01*
X186357Y432434D02*
X193343Y432434D01*
X193343Y434448D02*
X186357Y434448D01*
D14*
X189850Y432663D03*
X189850Y417287D03*
D13*
X137193Y430420D02*
X137193Y434906D01*
X137193Y430420D02*
X130207Y430420D01*
X130207Y434906D01*
X137193Y434906D01*
X137193Y432434D02*
X130207Y432434D01*
X130207Y434448D02*
X137193Y434448D01*
X137193Y419530D02*
X137193Y415044D01*
X130207Y415044D01*
X130207Y419530D01*
X137193Y419530D01*
X137193Y417058D02*
X130207Y417058D01*
X130207Y419072D02*
X137193Y419072D01*
D14*
X133700Y417287D03*
X133700Y432663D03*
D15*
X325326Y301405D02*
X336014Y301405D01*
X336014Y298845D01*
X325326Y298845D01*
X325326Y301405D01*
X325326Y300856D02*
X336014Y300856D01*
X336014Y314105D02*
X325326Y314105D01*
X336014Y314105D02*
X336014Y311545D01*
X325326Y311545D01*
X325326Y314105D01*
X325326Y313556D02*
X336014Y313556D01*
X336014Y326805D02*
X325326Y326805D01*
X336014Y326805D02*
X336014Y324245D01*
X325326Y324245D01*
X325326Y326805D01*
X325326Y326256D02*
X336014Y326256D01*
X336014Y339505D02*
X325326Y339505D01*
X336014Y339505D02*
X336014Y336945D01*
X325326Y336945D01*
X325326Y339505D01*
X325326Y338956D02*
X336014Y338956D01*
X263624Y339505D02*
X252936Y339505D01*
X263624Y339505D02*
X263624Y336945D01*
X252936Y336945D01*
X252936Y339505D01*
X252936Y338956D02*
X263624Y338956D01*
X263624Y326805D02*
X252936Y326805D01*
X263624Y326805D02*
X263624Y324245D01*
X252936Y324245D01*
X252936Y326805D01*
X252936Y326256D02*
X263624Y326256D01*
X263624Y314105D02*
X252936Y314105D01*
X263624Y314105D02*
X263624Y311545D01*
X252936Y311545D01*
X252936Y314105D01*
X252936Y313556D02*
X263624Y313556D01*
X263624Y301405D02*
X252936Y301405D01*
X263624Y301405D02*
X263624Y298845D01*
X252936Y298845D01*
X252936Y301405D01*
X252936Y300856D02*
X263624Y300856D01*
D11*
X77760Y417978D02*
X77760Y421998D01*
X77760Y417978D02*
X73740Y417978D01*
X73740Y421998D01*
X77760Y421998D01*
X77760Y419957D02*
X73740Y419957D01*
X73740Y421936D02*
X77760Y421936D01*
X77760Y412472D02*
X77760Y408452D01*
X73740Y408452D01*
X73740Y412472D01*
X77760Y412472D01*
X77760Y410431D02*
X73740Y410431D01*
X73740Y412410D02*
X77760Y412410D01*
D12*
X75750Y410462D03*
X75750Y419988D03*
D11*
X79277Y434160D02*
X83297Y434160D01*
X83297Y430140D01*
X79277Y430140D01*
X79277Y434160D01*
X79277Y432119D02*
X83297Y432119D01*
X83297Y434098D02*
X79277Y434098D01*
X88803Y434160D02*
X92823Y434160D01*
X92823Y430140D01*
X88803Y430140D01*
X88803Y434160D01*
X88803Y432119D02*
X92823Y432119D01*
X92823Y434098D02*
X88803Y434098D01*
D12*
X90813Y432150D03*
X81287Y432150D03*
D16*
X168272Y419728D02*
X179278Y419728D01*
X179278Y411222D01*
X168272Y411222D01*
X168272Y419728D01*
X168272Y413216D02*
X179278Y413216D01*
X179278Y415210D02*
X168272Y415210D01*
X168272Y417204D02*
X179278Y417204D01*
X179278Y419198D02*
X168272Y419198D01*
X155778Y419728D02*
X144772Y419728D01*
X155778Y419728D02*
X155778Y411222D01*
X144772Y411222D01*
X144772Y419728D01*
X144772Y413216D02*
X155778Y413216D01*
X155778Y415210D02*
X144772Y415210D01*
X144772Y417204D02*
X155778Y417204D01*
X155778Y419198D02*
X144772Y419198D01*
X144772Y430222D02*
X155778Y430222D01*
X144772Y430222D02*
X144772Y438728D01*
X155778Y438728D01*
X155778Y430222D01*
X155778Y432216D02*
X144772Y432216D01*
X144772Y434210D02*
X155778Y434210D01*
X155778Y436204D02*
X144772Y436204D01*
X144772Y438198D02*
X155778Y438198D01*
X168272Y430222D02*
X179278Y430222D01*
X168272Y430222D02*
X168272Y438728D01*
X179278Y438728D01*
X179278Y430222D01*
X179278Y432216D02*
X168272Y432216D01*
X168272Y434210D02*
X179278Y434210D01*
X179278Y436204D02*
X168272Y436204D01*
X168272Y438198D02*
X179278Y438198D01*
D17*
X308900Y386500D02*
X316900Y386500D01*
X316900Y374500D01*
X308900Y374500D01*
X308900Y386500D01*
X308900Y376499D02*
X316900Y376499D01*
X316900Y378498D02*
X308900Y378498D01*
X308900Y380497D02*
X316900Y380497D01*
X316900Y382496D02*
X308900Y382496D01*
X308900Y384495D02*
X316900Y384495D01*
X316900Y386494D02*
X308900Y386494D01*
X307400Y408500D02*
X299400Y408500D01*
X307400Y408500D02*
X307400Y396500D01*
X299400Y396500D01*
X299400Y408500D01*
X299400Y398499D02*
X307400Y398499D01*
X307400Y400498D02*
X299400Y400498D01*
X299400Y402497D02*
X307400Y402497D01*
X307400Y404496D02*
X299400Y404496D01*
X299400Y406495D02*
X307400Y406495D01*
X307400Y408494D02*
X299400Y408494D01*
X318400Y408500D02*
X326400Y408500D01*
X326400Y396500D01*
X318400Y396500D01*
X318400Y408500D01*
X318400Y398499D02*
X326400Y398499D01*
X326400Y400498D02*
X318400Y400498D01*
X318400Y402497D02*
X326400Y402497D01*
X326400Y404496D02*
X318400Y404496D01*
X318400Y406495D02*
X326400Y406495D01*
X326400Y408494D02*
X318400Y408494D01*
X316900Y479200D02*
X308900Y479200D01*
X308900Y491200D01*
X316900Y491200D01*
X316900Y479200D01*
X316900Y481199D02*
X308900Y481199D01*
X308900Y483198D02*
X316900Y483198D01*
X316900Y485197D02*
X308900Y485197D01*
X308900Y487196D02*
X316900Y487196D01*
X316900Y489195D02*
X308900Y489195D01*
X308900Y491194D02*
X316900Y491194D01*
X318400Y457200D02*
X326400Y457200D01*
X318400Y457200D02*
X318400Y469200D01*
X326400Y469200D01*
X326400Y457200D01*
X326400Y459199D02*
X318400Y459199D01*
X318400Y461198D02*
X326400Y461198D01*
X326400Y463197D02*
X318400Y463197D01*
X318400Y465196D02*
X326400Y465196D01*
X326400Y467195D02*
X318400Y467195D01*
X318400Y469194D02*
X326400Y469194D01*
X307400Y457200D02*
X299400Y457200D01*
X299400Y469200D01*
X307400Y469200D01*
X307400Y457200D01*
X307400Y459199D02*
X299400Y459199D01*
X299400Y461198D02*
X307400Y461198D01*
X307400Y463197D02*
X299400Y463197D01*
X299400Y465196D02*
X307400Y465196D01*
X307400Y467195D02*
X299400Y467195D01*
X299400Y469194D02*
X307400Y469194D01*
X456750Y445550D02*
X458750Y445550D01*
X458750Y432550D01*
X456750Y432550D01*
X456750Y445550D01*
X456750Y434549D02*
X458750Y434549D01*
X458750Y436548D02*
X456750Y436548D01*
X456750Y438547D02*
X458750Y438547D01*
X458750Y440546D02*
X456750Y440546D01*
X456750Y442545D02*
X458750Y442545D01*
X458750Y444544D02*
X456750Y444544D01*
X452250Y445550D02*
X450250Y445550D01*
X452250Y445550D02*
X452250Y432550D01*
X450250Y432550D01*
X450250Y445550D01*
X450250Y434549D02*
X452250Y434549D01*
X452250Y436548D02*
X450250Y436548D01*
X450250Y438547D02*
X452250Y438547D01*
X452250Y440546D02*
X450250Y440546D01*
X450250Y442545D02*
X452250Y442545D01*
X452250Y444544D02*
X450250Y444544D01*
X445750Y445550D02*
X443750Y445550D01*
X445750Y445550D02*
X445750Y432550D01*
X443750Y432550D01*
X443750Y445550D01*
X443750Y434549D02*
X445750Y434549D01*
X445750Y436548D02*
X443750Y436548D01*
X443750Y438547D02*
X445750Y438547D01*
X445750Y440546D02*
X443750Y440546D01*
X443750Y442545D02*
X445750Y442545D01*
X445750Y444544D02*
X443750Y444544D01*
X439250Y445550D02*
X437250Y445550D01*
X439250Y445550D02*
X439250Y432550D01*
X437250Y432550D01*
X437250Y445550D01*
X437250Y434549D02*
X439250Y434549D01*
X439250Y436548D02*
X437250Y436548D01*
X437250Y438547D02*
X439250Y438547D01*
X439250Y440546D02*
X437250Y440546D01*
X437250Y442545D02*
X439250Y442545D01*
X439250Y444544D02*
X437250Y444544D01*
X432750Y445550D02*
X430750Y445550D01*
X432750Y445550D02*
X432750Y432550D01*
X430750Y432550D01*
X430750Y445550D01*
X430750Y434549D02*
X432750Y434549D01*
X432750Y436548D02*
X430750Y436548D01*
X430750Y438547D02*
X432750Y438547D01*
X432750Y440546D02*
X430750Y440546D01*
X430750Y442545D02*
X432750Y442545D01*
X432750Y444544D02*
X430750Y444544D01*
X426250Y445550D02*
X424250Y445550D01*
X426250Y445550D02*
X426250Y432550D01*
X424250Y432550D01*
X424250Y445550D01*
X424250Y434549D02*
X426250Y434549D01*
X426250Y436548D02*
X424250Y436548D01*
X424250Y438547D02*
X426250Y438547D01*
X426250Y440546D02*
X424250Y440546D01*
X424250Y442545D02*
X426250Y442545D01*
X426250Y444544D02*
X424250Y444544D01*
X419750Y445550D02*
X417750Y445550D01*
X419750Y445550D02*
X419750Y432550D01*
X417750Y432550D01*
X417750Y445550D01*
X417750Y434549D02*
X419750Y434549D01*
X419750Y436548D02*
X417750Y436548D01*
X417750Y438547D02*
X419750Y438547D01*
X419750Y440546D02*
X417750Y440546D01*
X417750Y442545D02*
X419750Y442545D01*
X419750Y444544D02*
X417750Y444544D01*
X413250Y445550D02*
X411250Y445550D01*
X413250Y445550D02*
X413250Y432550D01*
X411250Y432550D01*
X411250Y445550D01*
X411250Y434549D02*
X413250Y434549D01*
X413250Y436548D02*
X411250Y436548D01*
X411250Y438547D02*
X413250Y438547D01*
X413250Y440546D02*
X411250Y440546D01*
X411250Y442545D02*
X413250Y442545D01*
X413250Y444544D02*
X411250Y444544D01*
X406750Y445550D02*
X404750Y445550D01*
X406750Y445550D02*
X406750Y432550D01*
X404750Y432550D01*
X404750Y445550D01*
X404750Y434549D02*
X406750Y434549D01*
X406750Y436548D02*
X404750Y436548D01*
X404750Y438547D02*
X406750Y438547D01*
X406750Y440546D02*
X404750Y440546D01*
X404750Y442545D02*
X406750Y442545D01*
X406750Y444544D02*
X404750Y444544D01*
X400250Y445550D02*
X398250Y445550D01*
X400250Y445550D02*
X400250Y432550D01*
X398250Y432550D01*
X398250Y445550D01*
X398250Y434549D02*
X400250Y434549D01*
X400250Y436548D02*
X398250Y436548D01*
X398250Y438547D02*
X400250Y438547D01*
X400250Y440546D02*
X398250Y440546D01*
X398250Y442545D02*
X400250Y442545D01*
X400250Y444544D02*
X398250Y444544D01*
X393750Y445550D02*
X391750Y445550D01*
X393750Y445550D02*
X393750Y432550D01*
X391750Y432550D01*
X391750Y445550D01*
X391750Y434549D02*
X393750Y434549D01*
X393750Y436548D02*
X391750Y436548D01*
X391750Y438547D02*
X393750Y438547D01*
X393750Y440546D02*
X391750Y440546D01*
X391750Y442545D02*
X393750Y442545D01*
X393750Y444544D02*
X391750Y444544D01*
X387250Y445550D02*
X385250Y445550D01*
X387250Y445550D02*
X387250Y432550D01*
X385250Y432550D01*
X385250Y445550D01*
X385250Y434549D02*
X387250Y434549D01*
X387250Y436548D02*
X385250Y436548D01*
X385250Y438547D02*
X387250Y438547D01*
X387250Y440546D02*
X385250Y440546D01*
X385250Y442545D02*
X387250Y442545D01*
X387250Y444544D02*
X385250Y444544D01*
X380750Y445550D02*
X378750Y445550D01*
X380750Y445550D02*
X380750Y432550D01*
X378750Y432550D01*
X378750Y445550D01*
X378750Y434549D02*
X380750Y434549D01*
X380750Y436548D02*
X378750Y436548D01*
X378750Y438547D02*
X380750Y438547D01*
X380750Y440546D02*
X378750Y440546D01*
X378750Y442545D02*
X380750Y442545D01*
X380750Y444544D02*
X378750Y444544D01*
X374250Y445550D02*
X372250Y445550D01*
X374250Y445550D02*
X374250Y432550D01*
X372250Y432550D01*
X372250Y445550D01*
X372250Y434549D02*
X374250Y434549D01*
X374250Y436548D02*
X372250Y436548D01*
X372250Y438547D02*
X374250Y438547D01*
X374250Y440546D02*
X372250Y440546D01*
X372250Y442545D02*
X374250Y442545D01*
X374250Y444544D02*
X372250Y444544D01*
X372250Y373050D02*
X374250Y373050D01*
X374250Y360050D01*
X372250Y360050D01*
X372250Y373050D01*
X372250Y362049D02*
X374250Y362049D01*
X374250Y364048D02*
X372250Y364048D01*
X372250Y366047D02*
X374250Y366047D01*
X374250Y368046D02*
X372250Y368046D01*
X372250Y370045D02*
X374250Y370045D01*
X374250Y372044D02*
X372250Y372044D01*
X378750Y373050D02*
X380750Y373050D01*
X380750Y360050D01*
X378750Y360050D01*
X378750Y373050D01*
X378750Y362049D02*
X380750Y362049D01*
X380750Y364048D02*
X378750Y364048D01*
X378750Y366047D02*
X380750Y366047D01*
X380750Y368046D02*
X378750Y368046D01*
X378750Y370045D02*
X380750Y370045D01*
X380750Y372044D02*
X378750Y372044D01*
X385250Y373050D02*
X387250Y373050D01*
X387250Y360050D01*
X385250Y360050D01*
X385250Y373050D01*
X385250Y362049D02*
X387250Y362049D01*
X387250Y364048D02*
X385250Y364048D01*
X385250Y366047D02*
X387250Y366047D01*
X387250Y368046D02*
X385250Y368046D01*
X385250Y370045D02*
X387250Y370045D01*
X387250Y372044D02*
X385250Y372044D01*
X391750Y373050D02*
X393750Y373050D01*
X393750Y360050D01*
X391750Y360050D01*
X391750Y373050D01*
X391750Y362049D02*
X393750Y362049D01*
X393750Y364048D02*
X391750Y364048D01*
X391750Y366047D02*
X393750Y366047D01*
X393750Y368046D02*
X391750Y368046D01*
X391750Y370045D02*
X393750Y370045D01*
X393750Y372044D02*
X391750Y372044D01*
X398250Y373050D02*
X400250Y373050D01*
X400250Y360050D01*
X398250Y360050D01*
X398250Y373050D01*
X398250Y362049D02*
X400250Y362049D01*
X400250Y364048D02*
X398250Y364048D01*
X398250Y366047D02*
X400250Y366047D01*
X400250Y368046D02*
X398250Y368046D01*
X398250Y370045D02*
X400250Y370045D01*
X400250Y372044D02*
X398250Y372044D01*
X404750Y373050D02*
X406750Y373050D01*
X406750Y360050D01*
X404750Y360050D01*
X404750Y373050D01*
X404750Y362049D02*
X406750Y362049D01*
X406750Y364048D02*
X404750Y364048D01*
X404750Y366047D02*
X406750Y366047D01*
X406750Y368046D02*
X404750Y368046D01*
X404750Y370045D02*
X406750Y370045D01*
X406750Y372044D02*
X404750Y372044D01*
X411250Y373050D02*
X413250Y373050D01*
X413250Y360050D01*
X411250Y360050D01*
X411250Y373050D01*
X411250Y362049D02*
X413250Y362049D01*
X413250Y364048D02*
X411250Y364048D01*
X411250Y366047D02*
X413250Y366047D01*
X413250Y368046D02*
X411250Y368046D01*
X411250Y370045D02*
X413250Y370045D01*
X413250Y372044D02*
X411250Y372044D01*
X417750Y373050D02*
X419750Y373050D01*
X419750Y360050D01*
X417750Y360050D01*
X417750Y373050D01*
X417750Y362049D02*
X419750Y362049D01*
X419750Y364048D02*
X417750Y364048D01*
X417750Y366047D02*
X419750Y366047D01*
X419750Y368046D02*
X417750Y368046D01*
X417750Y370045D02*
X419750Y370045D01*
X419750Y372044D02*
X417750Y372044D01*
X424250Y373050D02*
X426250Y373050D01*
X426250Y360050D01*
X424250Y360050D01*
X424250Y373050D01*
X424250Y362049D02*
X426250Y362049D01*
X426250Y364048D02*
X424250Y364048D01*
X424250Y366047D02*
X426250Y366047D01*
X426250Y368046D02*
X424250Y368046D01*
X424250Y370045D02*
X426250Y370045D01*
X426250Y372044D02*
X424250Y372044D01*
X430750Y373050D02*
X432750Y373050D01*
X432750Y360050D01*
X430750Y360050D01*
X430750Y373050D01*
X430750Y362049D02*
X432750Y362049D01*
X432750Y364048D02*
X430750Y364048D01*
X430750Y366047D02*
X432750Y366047D01*
X432750Y368046D02*
X430750Y368046D01*
X430750Y370045D02*
X432750Y370045D01*
X432750Y372044D02*
X430750Y372044D01*
X437250Y373050D02*
X439250Y373050D01*
X439250Y360050D01*
X437250Y360050D01*
X437250Y373050D01*
X437250Y362049D02*
X439250Y362049D01*
X439250Y364048D02*
X437250Y364048D01*
X437250Y366047D02*
X439250Y366047D01*
X439250Y368046D02*
X437250Y368046D01*
X437250Y370045D02*
X439250Y370045D01*
X439250Y372044D02*
X437250Y372044D01*
X443750Y373050D02*
X445750Y373050D01*
X445750Y360050D01*
X443750Y360050D01*
X443750Y373050D01*
X443750Y362049D02*
X445750Y362049D01*
X445750Y364048D02*
X443750Y364048D01*
X443750Y366047D02*
X445750Y366047D01*
X445750Y368046D02*
X443750Y368046D01*
X443750Y370045D02*
X445750Y370045D01*
X445750Y372044D02*
X443750Y372044D01*
X450250Y373050D02*
X452250Y373050D01*
X452250Y360050D01*
X450250Y360050D01*
X450250Y373050D01*
X450250Y362049D02*
X452250Y362049D01*
X452250Y364048D02*
X450250Y364048D01*
X450250Y366047D02*
X452250Y366047D01*
X452250Y368046D02*
X450250Y368046D01*
X450250Y370045D02*
X452250Y370045D01*
X452250Y372044D02*
X450250Y372044D01*
X456750Y373050D02*
X458750Y373050D01*
X458750Y360050D01*
X456750Y360050D01*
X456750Y373050D01*
X456750Y362049D02*
X458750Y362049D01*
X458750Y364048D02*
X456750Y364048D01*
X456750Y366047D02*
X458750Y366047D01*
X458750Y368046D02*
X456750Y368046D01*
X456750Y370045D02*
X458750Y370045D01*
X458750Y372044D02*
X456750Y372044D01*
D18*
X575825Y351325D02*
X575825Y340275D01*
X575825Y351325D02*
X588875Y351325D01*
X588875Y340275D01*
X575825Y340275D01*
X575825Y342224D02*
X588875Y342224D01*
X588875Y344173D02*
X575825Y344173D01*
X575825Y346122D02*
X588875Y346122D01*
X588875Y348071D02*
X575825Y348071D01*
X575825Y350020D02*
X588875Y350020D01*
X575825Y332325D02*
X575825Y321275D01*
X575825Y332325D02*
X588875Y332325D01*
X588875Y321275D01*
X575825Y321275D01*
X575825Y323224D02*
X588875Y323224D01*
X588875Y325173D02*
X575825Y325173D01*
X575825Y327122D02*
X588875Y327122D01*
X588875Y329071D02*
X575825Y329071D01*
X575825Y331020D02*
X588875Y331020D01*
X445875Y312825D02*
X445875Y301775D01*
X432825Y301775D01*
X432825Y312825D01*
X445875Y312825D01*
X445875Y303724D02*
X432825Y303724D01*
X432825Y305673D02*
X445875Y305673D01*
X445875Y307622D02*
X432825Y307622D01*
X432825Y309571D02*
X445875Y309571D01*
X445875Y311520D02*
X432825Y311520D01*
X445875Y320775D02*
X445875Y331825D01*
X445875Y320775D02*
X432825Y320775D01*
X432825Y331825D01*
X445875Y331825D01*
X445875Y322724D02*
X432825Y322724D01*
X432825Y324673D02*
X445875Y324673D01*
X445875Y326622D02*
X432825Y326622D01*
X432825Y328571D02*
X445875Y328571D01*
X445875Y330520D02*
X432825Y330520D01*
X399225Y477825D02*
X388175Y477825D01*
X388175Y490875D01*
X399225Y490875D01*
X399225Y477825D01*
X399225Y479774D02*
X388175Y479774D01*
X388175Y481723D02*
X399225Y481723D01*
X399225Y483672D02*
X388175Y483672D01*
X388175Y485621D02*
X399225Y485621D01*
X399225Y487570D02*
X388175Y487570D01*
X388175Y489519D02*
X399225Y489519D01*
X407175Y477825D02*
X418225Y477825D01*
X407175Y477825D02*
X407175Y490875D01*
X418225Y490875D01*
X418225Y477825D01*
X418225Y479774D02*
X407175Y479774D01*
X407175Y481723D02*
X418225Y481723D01*
X418225Y483672D02*
X407175Y483672D01*
X407175Y485621D02*
X418225Y485621D01*
X418225Y487570D02*
X407175Y487570D01*
X407175Y489519D02*
X418225Y489519D01*
D19*
X427020Y484680D02*
X427020Y474720D01*
X427020Y484680D02*
X436980Y484680D01*
X436980Y474720D01*
X427020Y474720D01*
X427020Y476759D02*
X436980Y476759D01*
X436980Y478798D02*
X427020Y478798D01*
X427020Y480837D02*
X436980Y480837D01*
X436980Y482876D02*
X427020Y482876D01*
X427020Y463680D02*
X427020Y453720D01*
X427020Y463680D02*
X436980Y463680D01*
X436980Y453720D01*
X427020Y453720D01*
X427020Y455759D02*
X436980Y455759D01*
X436980Y457798D02*
X427020Y457798D01*
X427020Y459837D02*
X436980Y459837D01*
X436980Y461876D02*
X427020Y461876D01*
D17*
X536600Y463500D02*
X536600Y445500D01*
X536600Y463500D02*
X538600Y463500D01*
X538600Y445500D01*
X536600Y445500D01*
X536600Y447499D02*
X538600Y447499D01*
X538600Y449498D02*
X536600Y449498D01*
X536600Y451497D02*
X538600Y451497D01*
X538600Y453496D02*
X536600Y453496D01*
X536600Y455495D02*
X538600Y455495D01*
X538600Y457494D02*
X536600Y457494D01*
X536600Y459493D02*
X538600Y459493D01*
X538600Y461492D02*
X536600Y461492D01*
X536600Y463491D02*
X538600Y463491D01*
X530100Y463500D02*
X530100Y445500D01*
X530100Y463500D02*
X532100Y463500D01*
X532100Y445500D01*
X530100Y445500D01*
X530100Y447499D02*
X532100Y447499D01*
X532100Y449498D02*
X530100Y449498D01*
X530100Y451497D02*
X532100Y451497D01*
X532100Y453496D02*
X530100Y453496D01*
X530100Y455495D02*
X532100Y455495D01*
X532100Y457494D02*
X530100Y457494D01*
X530100Y459493D02*
X532100Y459493D01*
X532100Y461492D02*
X530100Y461492D01*
X530100Y463491D02*
X532100Y463491D01*
X523600Y463500D02*
X523600Y445500D01*
X523600Y463500D02*
X525600Y463500D01*
X525600Y445500D01*
X523600Y445500D01*
X523600Y447499D02*
X525600Y447499D01*
X525600Y449498D02*
X523600Y449498D01*
X523600Y451497D02*
X525600Y451497D01*
X525600Y453496D02*
X523600Y453496D01*
X523600Y455495D02*
X525600Y455495D01*
X525600Y457494D02*
X523600Y457494D01*
X523600Y459493D02*
X525600Y459493D01*
X525600Y461492D02*
X523600Y461492D01*
X523600Y463491D02*
X525600Y463491D01*
X517100Y463500D02*
X517100Y445500D01*
X517100Y463500D02*
X519100Y463500D01*
X519100Y445500D01*
X517100Y445500D01*
X517100Y447499D02*
X519100Y447499D01*
X519100Y449498D02*
X517100Y449498D01*
X517100Y451497D02*
X519100Y451497D01*
X519100Y453496D02*
X517100Y453496D01*
X517100Y455495D02*
X519100Y455495D01*
X519100Y457494D02*
X517100Y457494D01*
X517100Y459493D02*
X519100Y459493D01*
X519100Y461492D02*
X517100Y461492D01*
X517100Y463491D02*
X519100Y463491D01*
X510600Y463500D02*
X510600Y445500D01*
X510600Y463500D02*
X512600Y463500D01*
X512600Y445500D01*
X510600Y445500D01*
X510600Y447499D02*
X512600Y447499D01*
X512600Y449498D02*
X510600Y449498D01*
X510600Y451497D02*
X512600Y451497D01*
X512600Y453496D02*
X510600Y453496D01*
X510600Y455495D02*
X512600Y455495D01*
X512600Y457494D02*
X510600Y457494D01*
X510600Y459493D02*
X512600Y459493D01*
X512600Y461492D02*
X510600Y461492D01*
X510600Y463491D02*
X512600Y463491D01*
D11*
X492610Y475490D02*
X492610Y492510D01*
X492610Y475490D02*
X476590Y475490D01*
X476590Y492510D01*
X492610Y492510D01*
X492610Y477469D02*
X476590Y477469D01*
X476590Y479448D02*
X492610Y479448D01*
X492610Y481427D02*
X476590Y481427D01*
X476590Y483406D02*
X492610Y483406D01*
X492610Y485385D02*
X476590Y485385D01*
X476590Y487364D02*
X492610Y487364D01*
X492610Y489343D02*
X476590Y489343D01*
X476590Y491322D02*
X492610Y491322D01*
X572610Y492510D02*
X572610Y475490D01*
X556590Y475490D01*
X556590Y492510D01*
X572610Y492510D01*
X572610Y477469D02*
X556590Y477469D01*
X556590Y479448D02*
X572610Y479448D01*
X572610Y481427D02*
X556590Y481427D01*
X556590Y483406D02*
X572610Y483406D01*
X572610Y485385D02*
X556590Y485385D01*
X556590Y487364D02*
X572610Y487364D01*
X572610Y489343D02*
X556590Y489343D01*
X556590Y491322D02*
X572610Y491322D01*
D18*
X501625Y435125D02*
X501625Y424075D01*
X501625Y435125D02*
X514675Y435125D01*
X514675Y424075D01*
X501625Y424075D01*
X501625Y426024D02*
X514675Y426024D01*
X514675Y427973D02*
X501625Y427973D01*
X501625Y429922D02*
X514675Y429922D01*
X514675Y431871D02*
X501625Y431871D01*
X501625Y433820D02*
X514675Y433820D01*
X501625Y416125D02*
X501625Y405075D01*
X501625Y416125D02*
X514675Y416125D01*
X514675Y405075D01*
X501625Y405075D01*
X501625Y407024D02*
X514675Y407024D01*
X514675Y408973D02*
X501625Y408973D01*
X501625Y410922D02*
X514675Y410922D01*
X514675Y412871D02*
X501625Y412871D01*
X501625Y414820D02*
X514675Y414820D01*
X579375Y416225D02*
X579375Y405175D01*
X566325Y405175D01*
X566325Y416225D01*
X579375Y416225D01*
X579375Y407124D02*
X566325Y407124D01*
X566325Y409073D02*
X579375Y409073D01*
X579375Y411022D02*
X566325Y411022D01*
X566325Y412971D02*
X579375Y412971D01*
X579375Y414920D02*
X566325Y414920D01*
X579375Y424175D02*
X579375Y435225D01*
X579375Y424175D02*
X566325Y424175D01*
X566325Y435225D01*
X579375Y435225D01*
X579375Y426124D02*
X566325Y426124D01*
X566325Y428073D02*
X579375Y428073D01*
X579375Y430022D02*
X566325Y430022D01*
X566325Y431971D02*
X579375Y431971D01*
X579375Y433920D02*
X566325Y433920D01*
X356025Y456425D02*
X344975Y456425D01*
X344975Y470475D01*
X356025Y470475D01*
X356025Y456425D01*
X356025Y458374D02*
X344975Y458374D01*
X344975Y460323D02*
X356025Y460323D01*
X356025Y462272D02*
X344975Y462272D01*
X344975Y464221D02*
X356025Y464221D01*
X356025Y466170D02*
X344975Y466170D01*
X344975Y468119D02*
X356025Y468119D01*
X356025Y470068D02*
X344975Y470068D01*
X363975Y456425D02*
X375025Y456425D01*
X363975Y456425D02*
X363975Y470475D01*
X375025Y470475D01*
X375025Y456425D01*
X375025Y458374D02*
X363975Y458374D01*
X363975Y460323D02*
X375025Y460323D01*
X375025Y462272D02*
X363975Y462272D01*
X363975Y464221D02*
X375025Y464221D01*
X375025Y466170D02*
X363975Y466170D01*
X363975Y468119D02*
X375025Y468119D01*
X375025Y470068D02*
X363975Y470068D01*
X359075Y423225D02*
X359075Y412175D01*
X345025Y412175D01*
X345025Y423225D01*
X359075Y423225D01*
X359075Y414124D02*
X345025Y414124D01*
X345025Y416073D02*
X359075Y416073D01*
X359075Y418022D02*
X345025Y418022D01*
X345025Y419971D02*
X359075Y419971D01*
X359075Y421920D02*
X345025Y421920D01*
X359075Y431175D02*
X359075Y442225D01*
X359075Y431175D02*
X345025Y431175D01*
X345025Y442225D01*
X359075Y442225D01*
X359075Y433124D02*
X345025Y433124D01*
X345025Y435073D02*
X359075Y435073D01*
X359075Y437022D02*
X345025Y437022D01*
X345025Y438971D02*
X359075Y438971D01*
X359075Y440920D02*
X345025Y440920D01*
D19*
X597380Y447420D02*
X597380Y457380D01*
X597380Y447420D02*
X587420Y447420D01*
X587420Y457380D01*
X597380Y457380D01*
X597380Y449459D02*
X587420Y449459D01*
X587420Y451498D02*
X597380Y451498D01*
X597380Y453537D02*
X587420Y453537D01*
X587420Y455576D02*
X597380Y455576D01*
X597380Y468420D02*
X597380Y478380D01*
X597380Y468420D02*
X587420Y468420D01*
X587420Y478380D01*
X597380Y478380D01*
X597380Y470459D02*
X587420Y470459D01*
X587420Y472498D02*
X597380Y472498D01*
X597380Y474537D02*
X587420Y474537D01*
X587420Y476576D02*
X597380Y476576D01*
X452620Y474220D02*
X452620Y484180D01*
X462580Y484180D01*
X462580Y474220D01*
X452620Y474220D01*
X452620Y476259D02*
X462580Y476259D01*
X462580Y478298D02*
X452620Y478298D01*
X452620Y480337D02*
X462580Y480337D01*
X462580Y482376D02*
X452620Y482376D01*
X452620Y463180D02*
X452620Y453220D01*
X452620Y463180D02*
X462580Y463180D01*
X462580Y453220D01*
X452620Y453220D01*
X452620Y455259D02*
X462580Y455259D01*
X462580Y457298D02*
X452620Y457298D01*
X452620Y459337D02*
X462580Y459337D01*
X462580Y461376D02*
X452620Y461376D01*
D18*
X411825Y339175D02*
X400775Y339175D01*
X411825Y339175D02*
X411825Y326125D01*
X400775Y326125D01*
X400775Y339175D01*
X400775Y328074D02*
X411825Y328074D01*
X411825Y330023D02*
X400775Y330023D01*
X400775Y331972D02*
X411825Y331972D01*
X411825Y333921D02*
X400775Y333921D01*
X400775Y335870D02*
X411825Y335870D01*
X411825Y337819D02*
X400775Y337819D01*
X392825Y339175D02*
X381775Y339175D01*
X392825Y339175D02*
X392825Y326125D01*
X381775Y326125D01*
X381775Y339175D01*
X381775Y328074D02*
X392825Y328074D01*
X392825Y330023D02*
X381775Y330023D01*
X381775Y331972D02*
X392825Y331972D01*
X392825Y333921D02*
X381775Y333921D01*
X381775Y335870D02*
X392825Y335870D01*
X392825Y337819D02*
X381775Y337819D01*
X400775Y317575D02*
X411825Y317575D01*
X411825Y304525D01*
X400775Y304525D01*
X400775Y317575D01*
X400775Y306474D02*
X411825Y306474D01*
X411825Y308423D02*
X400775Y308423D01*
X400775Y310372D02*
X411825Y310372D01*
X411825Y312321D02*
X400775Y312321D01*
X400775Y314270D02*
X411825Y314270D01*
X411825Y316219D02*
X400775Y316219D01*
X392825Y317575D02*
X381775Y317575D01*
X392825Y317575D02*
X392825Y304525D01*
X381775Y304525D01*
X381775Y317575D01*
X381775Y306474D02*
X392825Y306474D01*
X392825Y308423D02*
X381775Y308423D01*
X381775Y310372D02*
X392825Y310372D01*
X392825Y312321D02*
X381775Y312321D01*
X381775Y314270D02*
X392825Y314270D01*
X392825Y316219D02*
X381775Y316219D01*
X345425Y390375D02*
X345425Y401425D01*
X358475Y401425D01*
X358475Y390375D01*
X345425Y390375D01*
X345425Y392324D02*
X358475Y392324D01*
X358475Y394273D02*
X345425Y394273D01*
X345425Y396222D02*
X358475Y396222D01*
X358475Y398171D02*
X345425Y398171D01*
X345425Y400120D02*
X358475Y400120D01*
X345425Y382425D02*
X345425Y371375D01*
X345425Y382425D02*
X358475Y382425D01*
X358475Y371375D01*
X345425Y371375D01*
X345425Y373324D02*
X358475Y373324D01*
X358475Y375273D02*
X345425Y375273D01*
X345425Y377222D02*
X358475Y377222D01*
X358475Y379171D02*
X345425Y379171D01*
X345425Y381120D02*
X358475Y381120D01*
X388175Y456625D02*
X399225Y456625D01*
X388175Y456625D02*
X388175Y469675D01*
X399225Y469675D01*
X399225Y456625D01*
X399225Y458574D02*
X388175Y458574D01*
X388175Y460523D02*
X399225Y460523D01*
X399225Y462472D02*
X388175Y462472D01*
X388175Y464421D02*
X399225Y464421D01*
X399225Y466370D02*
X388175Y466370D01*
X388175Y468319D02*
X399225Y468319D01*
X407175Y456625D02*
X418225Y456625D01*
X407175Y456625D02*
X407175Y469675D01*
X418225Y469675D01*
X418225Y456625D01*
X418225Y458574D02*
X407175Y458574D01*
X407175Y460523D02*
X418225Y460523D01*
X418225Y462472D02*
X407175Y462472D01*
X407175Y464421D02*
X418225Y464421D01*
X418225Y466370D02*
X407175Y466370D01*
X407175Y468319D02*
X418225Y468319D01*
D20*
X127100Y371100D03*
X143100Y371100D03*
X127100Y355100D03*
X143100Y355100D03*
D21*
X113104Y380173D02*
X107096Y380173D01*
X107096Y381027D01*
X113104Y381027D01*
X113104Y380173D01*
X113104Y375173D02*
X107096Y375173D01*
X107096Y376027D01*
X113104Y376027D01*
X113104Y375173D01*
X113104Y370173D02*
X107096Y370173D01*
X107096Y371027D01*
X113104Y371027D01*
X113104Y370173D01*
X113104Y365173D02*
X107096Y365173D01*
X107096Y366027D01*
X113104Y366027D01*
X113104Y365173D01*
X113104Y360173D02*
X107096Y360173D01*
X107096Y361027D01*
X113104Y361027D01*
X113104Y360173D01*
X113104Y355173D02*
X107096Y355173D01*
X107096Y356027D01*
X113104Y356027D01*
X113104Y355173D01*
X113104Y350173D02*
X107096Y350173D01*
X107096Y351027D01*
X113104Y351027D01*
X113104Y350173D01*
X113104Y345173D02*
X107096Y345173D01*
X107096Y346027D01*
X113104Y346027D01*
X113104Y345173D01*
X118027Y341104D02*
X118027Y335096D01*
X117173Y335096D01*
X117173Y341104D01*
X118027Y341104D01*
X118027Y337087D02*
X117173Y337087D01*
X117173Y339078D02*
X118027Y339078D01*
X118027Y341069D02*
X117173Y341069D01*
X123027Y341104D02*
X123027Y335096D01*
X122173Y335096D01*
X122173Y341104D01*
X123027Y341104D01*
X123027Y337087D02*
X122173Y337087D01*
X122173Y339078D02*
X123027Y339078D01*
X123027Y341069D02*
X122173Y341069D01*
X128027Y341104D02*
X128027Y335096D01*
X127173Y335096D01*
X127173Y341104D01*
X128027Y341104D01*
X128027Y337087D02*
X127173Y337087D01*
X127173Y339078D02*
X128027Y339078D01*
X128027Y341069D02*
X127173Y341069D01*
X133027Y341104D02*
X133027Y335096D01*
X132173Y335096D01*
X132173Y341104D01*
X133027Y341104D01*
X133027Y337087D02*
X132173Y337087D01*
X132173Y339078D02*
X133027Y339078D01*
X133027Y341069D02*
X132173Y341069D01*
X138027Y341104D02*
X138027Y335096D01*
X137173Y335096D01*
X137173Y341104D01*
X138027Y341104D01*
X138027Y337087D02*
X137173Y337087D01*
X137173Y339078D02*
X138027Y339078D01*
X138027Y341069D02*
X137173Y341069D01*
X143027Y341104D02*
X143027Y335096D01*
X142173Y335096D01*
X142173Y341104D01*
X143027Y341104D01*
X143027Y337087D02*
X142173Y337087D01*
X142173Y339078D02*
X143027Y339078D01*
X143027Y341069D02*
X142173Y341069D01*
X148027Y341104D02*
X148027Y335096D01*
X147173Y335096D01*
X147173Y341104D01*
X148027Y341104D01*
X148027Y337087D02*
X147173Y337087D01*
X147173Y339078D02*
X148027Y339078D01*
X148027Y341069D02*
X147173Y341069D01*
X153027Y341104D02*
X153027Y335096D01*
X152173Y335096D01*
X152173Y341104D01*
X153027Y341104D01*
X153027Y337087D02*
X152173Y337087D01*
X152173Y339078D02*
X153027Y339078D01*
X153027Y341069D02*
X152173Y341069D01*
X157096Y346027D02*
X163104Y346027D01*
X163104Y345173D01*
X157096Y345173D01*
X157096Y346027D01*
X157096Y351027D02*
X163104Y351027D01*
X163104Y350173D01*
X157096Y350173D01*
X157096Y351027D01*
X157096Y356027D02*
X163104Y356027D01*
X163104Y355173D01*
X157096Y355173D01*
X157096Y356027D01*
X157096Y361027D02*
X163104Y361027D01*
X163104Y360173D01*
X157096Y360173D01*
X157096Y361027D01*
X157096Y366027D02*
X163104Y366027D01*
X163104Y365173D01*
X157096Y365173D01*
X157096Y366027D01*
X157096Y371027D02*
X163104Y371027D01*
X163104Y370173D01*
X157096Y370173D01*
X157096Y371027D01*
X157096Y376027D02*
X163104Y376027D01*
X163104Y375173D01*
X157096Y375173D01*
X157096Y376027D01*
X157096Y381027D02*
X163104Y381027D01*
X163104Y380173D01*
X157096Y380173D01*
X157096Y381027D01*
X152173Y385096D02*
X152173Y391104D01*
X153027Y391104D01*
X153027Y385096D01*
X152173Y385096D01*
X152173Y387087D02*
X153027Y387087D01*
X153027Y389078D02*
X152173Y389078D01*
X152173Y391069D02*
X153027Y391069D01*
X147173Y391104D02*
X147173Y385096D01*
X147173Y391104D02*
X148027Y391104D01*
X148027Y385096D01*
X147173Y385096D01*
X147173Y387087D02*
X148027Y387087D01*
X148027Y389078D02*
X147173Y389078D01*
X147173Y391069D02*
X148027Y391069D01*
X142173Y391104D02*
X142173Y385096D01*
X142173Y391104D02*
X143027Y391104D01*
X143027Y385096D01*
X142173Y385096D01*
X142173Y387087D02*
X143027Y387087D01*
X143027Y389078D02*
X142173Y389078D01*
X142173Y391069D02*
X143027Y391069D01*
X137173Y391104D02*
X137173Y385096D01*
X137173Y391104D02*
X138027Y391104D01*
X138027Y385096D01*
X137173Y385096D01*
X137173Y387087D02*
X138027Y387087D01*
X138027Y389078D02*
X137173Y389078D01*
X137173Y391069D02*
X138027Y391069D01*
X132173Y391104D02*
X132173Y385096D01*
X132173Y391104D02*
X133027Y391104D01*
X133027Y385096D01*
X132173Y385096D01*
X132173Y387087D02*
X133027Y387087D01*
X133027Y389078D02*
X132173Y389078D01*
X132173Y391069D02*
X133027Y391069D01*
X127173Y391104D02*
X127173Y385096D01*
X127173Y391104D02*
X128027Y391104D01*
X128027Y385096D01*
X127173Y385096D01*
X127173Y387087D02*
X128027Y387087D01*
X128027Y389078D02*
X127173Y389078D01*
X127173Y391069D02*
X128027Y391069D01*
X122173Y391104D02*
X122173Y385096D01*
X122173Y391104D02*
X123027Y391104D01*
X123027Y385096D01*
X122173Y385096D01*
X122173Y387087D02*
X123027Y387087D01*
X123027Y389078D02*
X122173Y389078D01*
X122173Y391069D02*
X123027Y391069D01*
X117173Y391104D02*
X117173Y385096D01*
X117173Y391104D02*
X118027Y391104D01*
X118027Y385096D01*
X117173Y385096D01*
X117173Y387087D02*
X118027Y387087D01*
X118027Y389078D02*
X117173Y389078D01*
X117173Y391069D02*
X118027Y391069D01*
D18*
X91825Y357625D02*
X80775Y357625D01*
X91825Y357625D02*
X91825Y343575D01*
X80775Y343575D01*
X80775Y357625D01*
X80775Y345524D02*
X91825Y345524D01*
X91825Y347473D02*
X80775Y347473D01*
X80775Y349422D02*
X91825Y349422D01*
X91825Y351371D02*
X80775Y351371D01*
X80775Y353320D02*
X91825Y353320D01*
X91825Y355269D02*
X80775Y355269D01*
X80775Y357218D02*
X91825Y357218D01*
X72825Y357625D02*
X61775Y357625D01*
X72825Y357625D02*
X72825Y343575D01*
X61775Y343575D01*
X61775Y357625D01*
X61775Y345524D02*
X72825Y345524D01*
X72825Y347473D02*
X61775Y347473D01*
X61775Y349422D02*
X72825Y349422D01*
X72825Y351371D02*
X61775Y351371D01*
X61775Y353320D02*
X72825Y353320D01*
X72825Y355269D02*
X61775Y355269D01*
X61775Y357218D02*
X72825Y357218D01*
X108775Y311025D02*
X119825Y311025D01*
X119825Y296975D01*
X108775Y296975D01*
X108775Y311025D01*
X108775Y298924D02*
X119825Y298924D01*
X119825Y300873D02*
X108775Y300873D01*
X108775Y302822D02*
X119825Y302822D01*
X119825Y304771D02*
X108775Y304771D01*
X108775Y306720D02*
X119825Y306720D01*
X119825Y308669D02*
X108775Y308669D01*
X108775Y310618D02*
X119825Y310618D01*
X100825Y311025D02*
X89775Y311025D01*
X100825Y311025D02*
X100825Y296975D01*
X89775Y296975D01*
X89775Y311025D01*
X89775Y298924D02*
X100825Y298924D01*
X100825Y300873D02*
X89775Y300873D01*
X89775Y302822D02*
X100825Y302822D01*
X100825Y304771D02*
X89775Y304771D01*
X89775Y306720D02*
X100825Y306720D01*
X100825Y308669D02*
X89775Y308669D01*
X89775Y310618D02*
X100825Y310618D01*
X149875Y311025D02*
X160925Y311025D01*
X160925Y296975D01*
X149875Y296975D01*
X149875Y311025D01*
X149875Y298924D02*
X160925Y298924D01*
X160925Y300873D02*
X149875Y300873D01*
X149875Y302822D02*
X160925Y302822D01*
X160925Y304771D02*
X149875Y304771D01*
X149875Y306720D02*
X160925Y306720D01*
X160925Y308669D02*
X149875Y308669D01*
X149875Y310618D02*
X160925Y310618D01*
X141925Y311025D02*
X130875Y311025D01*
X141925Y311025D02*
X141925Y296975D01*
X130875Y296975D01*
X130875Y311025D01*
X130875Y298924D02*
X141925Y298924D01*
X141925Y300873D02*
X130875Y300873D01*
X130875Y302822D02*
X141925Y302822D01*
X141925Y304771D02*
X130875Y304771D01*
X130875Y306720D02*
X141925Y306720D01*
X141925Y308669D02*
X130875Y308669D01*
X130875Y310618D02*
X141925Y310618D01*
X107175Y427175D02*
X107175Y438225D01*
X121225Y438225D01*
X121225Y427175D01*
X107175Y427175D01*
X107175Y429124D02*
X121225Y429124D01*
X121225Y431073D02*
X107175Y431073D01*
X107175Y433022D02*
X121225Y433022D01*
X121225Y434971D02*
X107175Y434971D01*
X107175Y436920D02*
X121225Y436920D01*
X107175Y419225D02*
X107175Y408175D01*
X107175Y419225D02*
X121225Y419225D01*
X121225Y408175D01*
X107175Y408175D01*
X107175Y410124D02*
X121225Y410124D01*
X121225Y412073D02*
X107175Y412073D01*
X107175Y414022D02*
X121225Y414022D01*
X121225Y415971D02*
X107175Y415971D01*
X107175Y417920D02*
X121225Y417920D01*
X286625Y387425D02*
X286625Y376375D01*
X272575Y376375D01*
X272575Y387425D01*
X286625Y387425D01*
X286625Y378324D02*
X272575Y378324D01*
X272575Y380273D02*
X286625Y380273D01*
X286625Y382222D02*
X272575Y382222D01*
X272575Y384171D02*
X286625Y384171D01*
X286625Y386120D02*
X272575Y386120D01*
X286625Y395375D02*
X286625Y406425D01*
X286625Y395375D02*
X272575Y395375D01*
X272575Y406425D01*
X286625Y406425D01*
X286625Y397324D02*
X272575Y397324D01*
X272575Y399273D02*
X286625Y399273D01*
X286625Y401222D02*
X272575Y401222D01*
X272575Y403171D02*
X286625Y403171D01*
X286625Y405120D02*
X272575Y405120D01*
X241925Y332325D02*
X230875Y332325D01*
X241925Y332325D02*
X241925Y318275D01*
X230875Y318275D01*
X230875Y332325D01*
X230875Y320224D02*
X241925Y320224D01*
X241925Y322173D02*
X230875Y322173D01*
X230875Y324122D02*
X241925Y324122D01*
X241925Y326071D02*
X230875Y326071D01*
X230875Y328020D02*
X241925Y328020D01*
X241925Y329969D02*
X230875Y329969D01*
X230875Y331918D02*
X241925Y331918D01*
X222925Y332325D02*
X211875Y332325D01*
X222925Y332325D02*
X222925Y318275D01*
X211875Y318275D01*
X211875Y332325D01*
X211875Y320224D02*
X222925Y320224D01*
X222925Y322173D02*
X211875Y322173D01*
X211875Y324122D02*
X222925Y324122D01*
X222925Y326071D02*
X211875Y326071D01*
X211875Y328020D02*
X222925Y328020D01*
X222925Y329969D02*
X211875Y329969D01*
X211875Y331918D02*
X222925Y331918D01*
X293475Y367125D02*
X304525Y367125D01*
X304525Y353075D01*
X293475Y353075D01*
X293475Y367125D01*
X293475Y355024D02*
X304525Y355024D01*
X304525Y356973D02*
X293475Y356973D01*
X293475Y358922D02*
X304525Y358922D01*
X304525Y360871D02*
X293475Y360871D01*
X293475Y362820D02*
X304525Y362820D01*
X304525Y364769D02*
X293475Y364769D01*
X293475Y366718D02*
X304525Y366718D01*
X285525Y367125D02*
X274475Y367125D01*
X285525Y367125D02*
X285525Y353075D01*
X274475Y353075D01*
X274475Y367125D01*
X274475Y355024D02*
X285525Y355024D01*
X285525Y356973D02*
X274475Y356973D01*
X274475Y358922D02*
X285525Y358922D01*
X285525Y360871D02*
X274475Y360871D01*
X274475Y362820D02*
X285525Y362820D01*
X285525Y364769D02*
X274475Y364769D01*
X274475Y366718D02*
X285525Y366718D01*
X316275Y436775D02*
X316275Y447825D01*
X330325Y447825D01*
X330325Y436775D01*
X316275Y436775D01*
X316275Y438724D02*
X330325Y438724D01*
X330325Y440673D02*
X316275Y440673D01*
X316275Y442622D02*
X330325Y442622D01*
X330325Y444571D02*
X316275Y444571D01*
X316275Y446520D02*
X330325Y446520D01*
X316275Y428825D02*
X316275Y417775D01*
X316275Y428825D02*
X330325Y428825D01*
X330325Y417775D01*
X316275Y417775D01*
X316275Y419724D02*
X330325Y419724D01*
X330325Y421673D02*
X316275Y421673D01*
X316275Y423622D02*
X330325Y423622D01*
X330325Y425571D02*
X316275Y425571D01*
X316275Y427520D02*
X330325Y427520D01*
X308625Y428825D02*
X308625Y417775D01*
X294575Y417775D01*
X294575Y428825D01*
X308625Y428825D01*
X308625Y419724D02*
X294575Y419724D01*
X294575Y421673D02*
X308625Y421673D01*
X308625Y423622D02*
X294575Y423622D01*
X294575Y425571D02*
X308625Y425571D01*
X308625Y427520D02*
X294575Y427520D01*
X308625Y436775D02*
X308625Y447825D01*
X308625Y436775D02*
X294575Y436775D01*
X294575Y447825D01*
X308625Y447825D01*
X308625Y438724D02*
X294575Y438724D01*
X294575Y440673D02*
X308625Y440673D01*
X308625Y442622D02*
X294575Y442622D01*
X294575Y444571D02*
X308625Y444571D01*
X308625Y446520D02*
X294575Y446520D01*
X272675Y447925D02*
X272675Y436875D01*
X272675Y447925D02*
X286725Y447925D01*
X286725Y436875D01*
X272675Y436875D01*
X272675Y438824D02*
X286725Y438824D01*
X286725Y440773D02*
X272675Y440773D01*
X272675Y442722D02*
X286725Y442722D01*
X286725Y444671D02*
X272675Y444671D01*
X272675Y446620D02*
X286725Y446620D01*
X272675Y428925D02*
X272675Y417875D01*
X272675Y428925D02*
X286725Y428925D01*
X286725Y417875D01*
X272675Y417875D01*
X272675Y419824D02*
X286725Y419824D01*
X286725Y421773D02*
X272675Y421773D01*
X272675Y423722D02*
X286725Y423722D01*
X286725Y425671D02*
X272675Y425671D01*
X272675Y427620D02*
X286725Y427620D01*
X273075Y478275D02*
X273075Y489325D01*
X286125Y489325D01*
X286125Y478275D01*
X273075Y478275D01*
X273075Y480224D02*
X286125Y480224D01*
X286125Y482173D02*
X273075Y482173D01*
X273075Y484122D02*
X286125Y484122D01*
X286125Y486071D02*
X273075Y486071D01*
X273075Y488020D02*
X286125Y488020D01*
X273075Y470325D02*
X273075Y459275D01*
X273075Y470325D02*
X286125Y470325D01*
X286125Y459275D01*
X273075Y459275D01*
X273075Y461224D02*
X286125Y461224D01*
X286125Y463173D02*
X273075Y463173D01*
X273075Y465122D02*
X286125Y465122D01*
X286125Y467071D02*
X273075Y467071D01*
X273075Y469020D02*
X286125Y469020D01*
D17*
X564300Y255700D02*
X564300Y249700D01*
X554300Y249700D01*
X554300Y255700D01*
X564300Y255700D01*
X564300Y251699D02*
X554300Y251699D01*
X554300Y253698D02*
X564300Y253698D01*
X564300Y255697D02*
X554300Y255697D01*
X564300Y267700D02*
X564300Y273700D01*
X564300Y267700D02*
X554300Y267700D01*
X554300Y273700D01*
X564300Y273700D01*
X564300Y269699D02*
X554300Y269699D01*
X554300Y271698D02*
X564300Y271698D01*
X564300Y273697D02*
X554300Y273697D01*
X536100Y273700D02*
X536100Y267700D01*
X536100Y273700D02*
X546100Y273700D01*
X546100Y267700D01*
X536100Y267700D01*
X536100Y269699D02*
X546100Y269699D01*
X546100Y271698D02*
X536100Y271698D01*
X536100Y273697D02*
X546100Y273697D01*
X536100Y255700D02*
X536100Y249700D01*
X536100Y255700D02*
X546100Y255700D01*
X546100Y249700D01*
X536100Y249700D01*
X536100Y251699D02*
X546100Y251699D01*
X546100Y253698D02*
X536100Y253698D01*
X536100Y255697D02*
X546100Y255697D01*
X435000Y255500D02*
X435000Y249500D01*
X425000Y249500D01*
X425000Y255500D01*
X435000Y255500D01*
X435000Y251499D02*
X425000Y251499D01*
X425000Y253498D02*
X435000Y253498D01*
X435000Y255497D02*
X425000Y255497D01*
X435000Y267500D02*
X435000Y273500D01*
X435000Y267500D02*
X425000Y267500D01*
X425000Y273500D01*
X435000Y273500D01*
X435000Y269499D02*
X425000Y269499D01*
X425000Y271498D02*
X435000Y271498D01*
X435000Y273497D02*
X425000Y273497D01*
D19*
X672420Y128880D02*
X672420Y118920D01*
X672420Y128880D02*
X682380Y128880D01*
X682380Y118920D01*
X672420Y118920D01*
X672420Y120959D02*
X682380Y120959D01*
X682380Y122998D02*
X672420Y122998D01*
X672420Y125037D02*
X682380Y125037D01*
X682380Y127076D02*
X672420Y127076D01*
X672420Y107880D02*
X672420Y97920D01*
X672420Y107880D02*
X682380Y107880D01*
X682380Y97920D01*
X672420Y97920D01*
X672420Y99959D02*
X682380Y99959D01*
X682380Y101998D02*
X672420Y101998D01*
X672420Y104037D02*
X682380Y104037D01*
X682380Y106076D02*
X672420Y106076D01*
D18*
X773475Y370913D02*
X784525Y370913D01*
X784525Y357863D01*
X773475Y357863D01*
X773475Y370913D01*
X773475Y359812D02*
X784525Y359812D01*
X784525Y361761D02*
X773475Y361761D01*
X773475Y363710D02*
X784525Y363710D01*
X784525Y365659D02*
X773475Y365659D01*
X773475Y367608D02*
X784525Y367608D01*
X784525Y369557D02*
X773475Y369557D01*
X765525Y370913D02*
X754475Y370913D01*
X765525Y370913D02*
X765525Y357863D01*
X754475Y357863D01*
X754475Y370913D01*
X754475Y359812D02*
X765525Y359812D01*
X765525Y361761D02*
X754475Y361761D01*
X754475Y363710D02*
X765525Y363710D01*
X765525Y365659D02*
X754475Y365659D01*
X754475Y367608D02*
X765525Y367608D01*
X765525Y369557D02*
X754475Y369557D01*
D22*
X710611Y342035D02*
X710611Y331793D01*
X710611Y342035D02*
X731013Y342035D01*
X731013Y331793D01*
X710611Y331793D01*
X710611Y333743D02*
X731013Y333743D01*
X731013Y335693D02*
X710611Y335693D01*
X710611Y337643D02*
X731013Y337643D01*
X731013Y339593D02*
X710611Y339593D01*
X710611Y341543D02*
X731013Y341543D01*
X710611Y318921D02*
X710611Y308679D01*
X710611Y318921D02*
X731013Y318921D01*
X731013Y308679D01*
X710611Y308679D01*
X710611Y310629D02*
X731013Y310629D01*
X731013Y312579D02*
X710611Y312579D01*
X710611Y314529D02*
X731013Y314529D01*
X731013Y316479D02*
X710611Y316479D01*
X710611Y318429D02*
X731013Y318429D01*
X710611Y295807D02*
X710611Y285565D01*
X710611Y295807D02*
X731013Y295807D01*
X731013Y285565D01*
X710611Y285565D01*
X710611Y287515D02*
X731013Y287515D01*
X731013Y289465D02*
X710611Y289465D01*
X710611Y291415D02*
X731013Y291415D01*
X731013Y293365D02*
X710611Y293365D01*
X710611Y295315D02*
X731013Y295315D01*
D11*
X772780Y296790D02*
X772780Y330810D01*
X792800Y330810D01*
X792800Y296790D01*
X772780Y296790D01*
X772780Y298769D02*
X792800Y298769D01*
X792800Y300748D02*
X772780Y300748D01*
X772780Y302727D02*
X792800Y302727D01*
X792800Y304706D02*
X772780Y304706D01*
X772780Y306685D02*
X792800Y306685D01*
X792800Y308664D02*
X772780Y308664D01*
X772780Y310643D02*
X792800Y310643D01*
X792800Y312622D02*
X772780Y312622D01*
X772780Y314601D02*
X792800Y314601D01*
X792800Y316580D02*
X772780Y316580D01*
X772780Y318559D02*
X792800Y318559D01*
X792800Y320538D02*
X772780Y320538D01*
X772780Y322517D02*
X792800Y322517D01*
X792800Y324496D02*
X772780Y324496D01*
X772780Y326475D02*
X792800Y326475D01*
X792800Y328454D02*
X772780Y328454D01*
X772780Y330433D02*
X792800Y330433D01*
D18*
X676925Y301487D02*
X665875Y301487D01*
X665875Y314537D01*
X676925Y314537D01*
X676925Y301487D01*
X676925Y303436D02*
X665875Y303436D01*
X665875Y305385D02*
X676925Y305385D01*
X676925Y307334D02*
X665875Y307334D01*
X665875Y309283D02*
X676925Y309283D01*
X676925Y311232D02*
X665875Y311232D01*
X665875Y313181D02*
X676925Y313181D01*
X684875Y301487D02*
X695925Y301487D01*
X684875Y301487D02*
X684875Y314537D01*
X695925Y314537D01*
X695925Y301487D01*
X695925Y303436D02*
X684875Y303436D01*
X684875Y305385D02*
X695925Y305385D01*
X695925Y307334D02*
X684875Y307334D01*
X684875Y309283D02*
X695925Y309283D01*
X695925Y311232D02*
X684875Y311232D01*
X684875Y313181D02*
X695925Y313181D01*
D19*
X653880Y364368D02*
X643920Y364368D01*
X653880Y364368D02*
X653880Y354408D01*
X643920Y354408D01*
X643920Y364368D01*
X643920Y356447D02*
X653880Y356447D01*
X653880Y358486D02*
X643920Y358486D01*
X643920Y360525D02*
X653880Y360525D01*
X653880Y362564D02*
X643920Y362564D01*
X632880Y364368D02*
X622920Y364368D01*
X632880Y364368D02*
X632880Y354408D01*
X622920Y354408D01*
X622920Y364368D01*
X622920Y356447D02*
X632880Y356447D01*
X632880Y358486D02*
X622920Y358486D01*
X622920Y360525D02*
X632880Y360525D01*
X632880Y362564D02*
X622920Y362564D01*
D18*
X622275Y383487D02*
X633325Y383487D01*
X622275Y383487D02*
X622275Y396537D01*
X633325Y396537D01*
X633325Y383487D01*
X633325Y385436D02*
X622275Y385436D01*
X622275Y387385D02*
X633325Y387385D01*
X633325Y389334D02*
X622275Y389334D01*
X622275Y391283D02*
X633325Y391283D01*
X633325Y393232D02*
X622275Y393232D01*
X622275Y395181D02*
X633325Y395181D01*
X641275Y383487D02*
X652325Y383487D01*
X641275Y383487D02*
X641275Y396537D01*
X652325Y396537D01*
X652325Y383487D01*
X652325Y385436D02*
X641275Y385436D01*
X641275Y387385D02*
X652325Y387385D01*
X652325Y389334D02*
X641275Y389334D01*
X641275Y391283D02*
X652325Y391283D01*
X652325Y393232D02*
X641275Y393232D01*
X641275Y395181D02*
X652325Y395181D01*
D23*
X664270Y431770D02*
X720530Y431770D01*
X664270Y431770D02*
X664270Y492030D01*
X720530Y492030D01*
X720530Y431770D01*
X720530Y433509D02*
X664270Y433509D01*
X664270Y435248D02*
X720530Y435248D01*
X720530Y436987D02*
X664270Y436987D01*
X664270Y438726D02*
X720530Y438726D01*
X720530Y440465D02*
X664270Y440465D01*
X664270Y442204D02*
X720530Y442204D01*
X720530Y443943D02*
X664270Y443943D01*
X664270Y445682D02*
X720530Y445682D01*
X720530Y447421D02*
X664270Y447421D01*
X664270Y449160D02*
X720530Y449160D01*
X720530Y450899D02*
X664270Y450899D01*
X664270Y452638D02*
X720530Y452638D01*
X720530Y454377D02*
X664270Y454377D01*
X664270Y456116D02*
X720530Y456116D01*
X720530Y457855D02*
X664270Y457855D01*
X664270Y459594D02*
X720530Y459594D01*
X720530Y461333D02*
X664270Y461333D01*
X664270Y463072D02*
X720530Y463072D01*
X720530Y464811D02*
X664270Y464811D01*
X664270Y466550D02*
X720530Y466550D01*
X720530Y468289D02*
X664270Y468289D01*
X664270Y470028D02*
X720530Y470028D01*
X720530Y471767D02*
X664270Y471767D01*
X664270Y473506D02*
X720530Y473506D01*
X720530Y475245D02*
X664270Y475245D01*
X664270Y476984D02*
X720530Y476984D01*
X720530Y478723D02*
X664270Y478723D01*
X664270Y480462D02*
X720530Y480462D01*
X720530Y482201D02*
X664270Y482201D01*
X664270Y483940D02*
X720530Y483940D01*
X720530Y485679D02*
X664270Y485679D01*
X664270Y487418D02*
X720530Y487418D01*
X720530Y489157D02*
X664270Y489157D01*
X664270Y490896D02*
X720530Y490896D01*
D24*
X676560Y376140D02*
X662640Y376140D01*
X662640Y404060D01*
X676560Y404060D01*
X676560Y376140D01*
X676560Y378219D02*
X662640Y378219D01*
X662640Y380298D02*
X676560Y380298D01*
X676560Y382377D02*
X662640Y382377D01*
X662640Y384456D02*
X676560Y384456D01*
X676560Y386535D02*
X662640Y386535D01*
X662640Y388614D02*
X676560Y388614D01*
X676560Y390693D02*
X662640Y390693D01*
X662640Y392772D02*
X676560Y392772D01*
X676560Y394851D02*
X662640Y394851D01*
X662640Y396930D02*
X676560Y396930D01*
X676560Y399009D02*
X662640Y399009D01*
X662640Y401088D02*
X676560Y401088D01*
X676560Y403167D02*
X662640Y403167D01*
X708240Y376140D02*
X722160Y376140D01*
X708240Y376140D02*
X708240Y404060D01*
X722160Y404060D01*
X722160Y376140D01*
X722160Y378219D02*
X708240Y378219D01*
X708240Y380298D02*
X722160Y380298D01*
X722160Y382377D02*
X708240Y382377D01*
X708240Y384456D02*
X722160Y384456D01*
X722160Y386535D02*
X708240Y386535D01*
X708240Y388614D02*
X722160Y388614D01*
X722160Y390693D02*
X708240Y390693D01*
X708240Y392772D02*
X722160Y392772D01*
X722160Y394851D02*
X708240Y394851D01*
X708240Y396930D02*
X722160Y396930D01*
X722160Y399009D02*
X708240Y399009D01*
X708240Y401088D02*
X722160Y401088D01*
X722160Y403167D02*
X708240Y403167D01*
D17*
X174100Y255500D02*
X174100Y249500D01*
X164100Y249500D01*
X164100Y255500D01*
X174100Y255500D01*
X174100Y251499D02*
X164100Y251499D01*
X164100Y253498D02*
X174100Y253498D01*
X174100Y255497D02*
X164100Y255497D01*
X174100Y267500D02*
X174100Y273500D01*
X174100Y267500D02*
X164100Y267500D01*
X164100Y273500D01*
X174100Y273500D01*
X174100Y269499D02*
X164100Y269499D01*
X164100Y271498D02*
X174100Y271498D01*
X174100Y273497D02*
X164100Y273497D01*
X148500Y273500D02*
X148500Y267500D01*
X148500Y273500D02*
X158500Y273500D01*
X158500Y267500D01*
X148500Y267500D01*
X148500Y269499D02*
X158500Y269499D01*
X158500Y271498D02*
X148500Y271498D01*
X148500Y273497D02*
X158500Y273497D01*
X148500Y255500D02*
X148500Y249500D01*
X148500Y255500D02*
X158500Y255500D01*
X158500Y249500D01*
X148500Y249500D01*
X148500Y251499D02*
X158500Y251499D01*
X158500Y253498D02*
X148500Y253498D01*
X148500Y255497D02*
X158500Y255497D01*
X50100Y255400D02*
X50100Y249400D01*
X40100Y249400D01*
X40100Y255400D01*
X50100Y255400D01*
X50100Y251399D02*
X40100Y251399D01*
X40100Y253398D02*
X50100Y253398D01*
X50100Y255397D02*
X40100Y255397D01*
X50100Y267400D02*
X50100Y273400D01*
X50100Y267400D02*
X40100Y267400D01*
X40100Y273400D01*
X50100Y273400D01*
X50100Y269399D02*
X40100Y269399D01*
X40100Y271398D02*
X50100Y271398D01*
X50100Y273397D02*
X40100Y273397D01*
D19*
X253120Y128880D02*
X253120Y118920D01*
X253120Y128880D02*
X263080Y128880D01*
X263080Y118920D01*
X253120Y118920D01*
X253120Y120959D02*
X263080Y120959D01*
X263080Y122998D02*
X253120Y122998D01*
X253120Y125037D02*
X263080Y125037D01*
X263080Y127076D02*
X253120Y127076D01*
X253120Y107880D02*
X253120Y97920D01*
X253120Y107880D02*
X263080Y107880D01*
X263080Y97920D01*
X253120Y97920D01*
X253120Y99959D02*
X263080Y99959D01*
X263080Y101998D02*
X253120Y101998D01*
X253120Y104037D02*
X263080Y104037D01*
X263080Y106076D02*
X253120Y106076D01*
D17*
X369200Y249500D02*
X369200Y255500D01*
X369200Y249500D02*
X359200Y249500D01*
X359200Y255500D01*
X369200Y255500D01*
X369200Y251499D02*
X359200Y251499D01*
X359200Y253498D02*
X369200Y253498D01*
X369200Y255497D02*
X359200Y255497D01*
X369200Y267500D02*
X369200Y273500D01*
X369200Y267500D02*
X359200Y267500D01*
X359200Y273500D01*
X369200Y273500D01*
X369200Y269499D02*
X359200Y269499D01*
X359200Y271498D02*
X369200Y271498D01*
X369200Y273497D02*
X359200Y273497D01*
X343300Y273500D02*
X343300Y267500D01*
X343300Y273500D02*
X353300Y273500D01*
X353300Y267500D01*
X343300Y267500D01*
X343300Y269499D02*
X353300Y269499D01*
X353300Y271498D02*
X343300Y271498D01*
X343300Y273497D02*
X353300Y273497D01*
X343300Y255500D02*
X343300Y249500D01*
X343300Y255500D02*
X353300Y255500D01*
X353300Y249500D01*
X343300Y249500D01*
X343300Y251499D02*
X353300Y251499D01*
X353300Y253498D02*
X343300Y253498D01*
X343300Y255497D02*
X353300Y255497D01*
X239700Y255600D02*
X239700Y249600D01*
X229700Y249600D01*
X229700Y255600D01*
X239700Y255600D01*
X239700Y251599D02*
X229700Y251599D01*
X229700Y253598D02*
X239700Y253598D01*
X239700Y255597D02*
X229700Y255597D01*
X239700Y267600D02*
X239700Y273600D01*
X239700Y267600D02*
X229700Y267600D01*
X229700Y273600D01*
X239700Y273600D01*
X239700Y269599D02*
X229700Y269599D01*
X229700Y271598D02*
X239700Y271598D01*
X239700Y273597D02*
X229700Y273597D01*
D19*
X467720Y128880D02*
X467720Y118920D01*
X467720Y128880D02*
X477680Y128880D01*
X477680Y118920D01*
X467720Y118920D01*
X467720Y120959D02*
X477680Y120959D01*
X477680Y122998D02*
X467720Y122998D01*
X467720Y125037D02*
X477680Y125037D01*
X477680Y127076D02*
X467720Y127076D01*
X467720Y107880D02*
X467720Y97920D01*
X467720Y107880D02*
X477680Y107880D01*
X477680Y97920D01*
X467720Y97920D01*
X467720Y99959D02*
X477680Y99959D01*
X477680Y101998D02*
X467720Y101998D01*
X467720Y104037D02*
X477680Y104037D01*
X477680Y106076D02*
X467720Y106076D01*
X643720Y346280D02*
X653680Y346280D01*
X653680Y336320D01*
X643720Y336320D01*
X643720Y346280D01*
X643720Y338359D02*
X653680Y338359D01*
X653680Y340398D02*
X643720Y340398D01*
X643720Y342437D02*
X653680Y342437D01*
X653680Y344476D02*
X643720Y344476D01*
X632680Y346280D02*
X622720Y346280D01*
X632680Y346280D02*
X632680Y336320D01*
X622720Y336320D01*
X622720Y346280D01*
X622720Y338359D02*
X632680Y338359D01*
X632680Y340398D02*
X622720Y340398D01*
X622720Y342437D02*
X632680Y342437D01*
X632680Y344476D02*
X622720Y344476D01*
D18*
X611625Y365075D02*
X611625Y376125D01*
X611625Y365075D02*
X598575Y365075D01*
X598575Y376125D01*
X611625Y376125D01*
X611625Y367024D02*
X598575Y367024D01*
X598575Y368973D02*
X611625Y368973D01*
X611625Y370922D02*
X598575Y370922D01*
X598575Y372871D02*
X611625Y372871D01*
X611625Y374820D02*
X598575Y374820D01*
X611625Y384075D02*
X611625Y395125D01*
X611625Y384075D02*
X598575Y384075D01*
X598575Y395125D01*
X611625Y395125D01*
X611625Y386024D02*
X598575Y386024D01*
X598575Y387973D02*
X611625Y387973D01*
X611625Y389922D02*
X598575Y389922D01*
X598575Y391871D02*
X611625Y391871D01*
X611625Y393820D02*
X598575Y393820D01*
D19*
X643420Y328780D02*
X653380Y328780D01*
X653380Y318820D01*
X643420Y318820D01*
X643420Y328780D01*
X643420Y320859D02*
X653380Y320859D01*
X653380Y322898D02*
X643420Y322898D01*
X643420Y324937D02*
X653380Y324937D01*
X653380Y326976D02*
X643420Y326976D01*
X632380Y328780D02*
X622420Y328780D01*
X632380Y328780D02*
X632380Y318820D01*
X622420Y318820D01*
X622420Y328780D01*
X622420Y320859D02*
X632380Y320859D01*
X632380Y322898D02*
X622420Y322898D01*
X622420Y324937D02*
X632380Y324937D01*
X632380Y326976D02*
X622420Y326976D01*
D18*
X598475Y340475D02*
X598475Y351525D01*
X611525Y351525D01*
X611525Y340475D01*
X598475Y340475D01*
X598475Y342424D02*
X611525Y342424D01*
X611525Y344373D02*
X598475Y344373D01*
X598475Y346322D02*
X611525Y346322D01*
X611525Y348271D02*
X598475Y348271D01*
X598475Y350220D02*
X611525Y350220D01*
X598475Y332525D02*
X598475Y321475D01*
X598475Y332525D02*
X611525Y332525D01*
X611525Y321475D01*
X598475Y321475D01*
X598475Y323424D02*
X611525Y323424D01*
X611525Y325373D02*
X598475Y325373D01*
X598475Y327322D02*
X611525Y327322D01*
X611525Y329271D02*
X598475Y329271D01*
X598475Y331220D02*
X611525Y331220D01*
X600625Y405175D02*
X600625Y416225D01*
X600625Y405175D02*
X587575Y405175D01*
X587575Y416225D01*
X600625Y416225D01*
X600625Y407124D02*
X587575Y407124D01*
X587575Y409073D02*
X600625Y409073D01*
X600625Y411022D02*
X587575Y411022D01*
X587575Y412971D02*
X600625Y412971D01*
X600625Y414920D02*
X587575Y414920D01*
X600625Y424175D02*
X600625Y435225D01*
X600625Y424175D02*
X587575Y424175D01*
X587575Y435225D01*
X600625Y435225D01*
X600625Y426124D02*
X587575Y426124D01*
X587575Y428073D02*
X600625Y428073D01*
X600625Y430022D02*
X587575Y430022D01*
X587575Y431971D02*
X600625Y431971D01*
X600625Y433920D02*
X587575Y433920D01*
M02*
