G04 EAGLE Gerber X2 export*
G75*
%MOMM*%
%FSLAX34Y34*%
%LPD*%
%AMOC8*
5,1,8,0,0,1.08239X$1,22.5*%
G01*
%ADD10C,0.597406*%
%ADD11C,0.462000*%
%ADD12R,0.754000X0.754100*%
%ADD13R,0.754000X0.754000*%
%ADD14C,0.449500*%
%ADD15R,1.031800X0.754000*%
%ADD16C,0.553166*%
%ADD17R,0.754100X0.754000*%
%ADD18C,0.351500*%
%ADD19C,0.360000*%
%ADD20C,2.324000*%
%ADD21C,0.600000*%
%ADD22C,1.714400*%
%ADD23C,0.315000*%
%ADD24C,0.340000*%
%ADD25C,2.400200*%
%ADD26C,0.286000*%
%ADD27C,0.597659*%
%ADD28C,0.237000*%
%ADD29C,1.409600*%
%ADD30C,2.781200*%
%ADD31C,2.019200*%
%ADD32C,0.400000*%
%ADD33C,0.323072*%
%ADD34C,0.270000*%
%ADD35C,0.198000*%
%ADD36C,0.312000*%
%ADD37C,6.134000*%
%ADD38C,2.590700*%
%ADD39C,1.700000*%


D10*
X97377Y439639D02*
X95223Y439639D01*
X95223Y439761D01*
X97377Y439761D01*
X97377Y439639D01*
X76377Y439639D02*
X74223Y439639D01*
X74223Y439761D01*
X76377Y439761D01*
X76377Y439639D01*
D11*
X101065Y424278D02*
X101065Y414898D01*
X91685Y414898D01*
X91685Y424278D01*
X101065Y424278D01*
X101065Y419517D02*
X91685Y419517D01*
X91685Y424136D02*
X101065Y424136D01*
X101065Y414752D02*
X101065Y405372D01*
X91685Y405372D01*
X91685Y414752D01*
X101065Y414752D01*
X101065Y409991D02*
X91685Y409991D01*
X91685Y414610D02*
X101065Y414610D01*
D12*
X96375Y410063D03*
D13*
X96375Y419588D03*
D14*
X183597Y422290D02*
X183597Y412284D01*
X183597Y422290D02*
X196103Y422290D01*
X196103Y412284D01*
X183597Y412284D01*
X183597Y416778D02*
X196103Y416778D01*
X196103Y421272D02*
X183597Y421272D01*
X183597Y427660D02*
X183597Y437666D01*
X196103Y437666D01*
X196103Y427660D01*
X183597Y427660D01*
X183597Y432154D02*
X196103Y432154D01*
X196103Y436648D02*
X183597Y436648D01*
D15*
X189850Y432714D03*
X189850Y417236D03*
D14*
X139953Y427660D02*
X139953Y437666D01*
X139953Y427660D02*
X127447Y427660D01*
X127447Y437666D01*
X139953Y437666D01*
X139953Y432154D02*
X127447Y432154D01*
X127447Y436648D02*
X139953Y436648D01*
X139953Y422290D02*
X139953Y412284D01*
X127447Y412284D01*
X127447Y422290D01*
X139953Y422290D01*
X139953Y416778D02*
X127447Y416778D01*
X127447Y421272D02*
X139953Y421272D01*
D15*
X133700Y417236D03*
X133700Y432714D03*
D16*
X323086Y303645D02*
X338254Y303645D01*
X338254Y296605D01*
X323086Y296605D01*
X323086Y303645D01*
X323086Y302136D02*
X338254Y302136D01*
X338254Y316345D02*
X323086Y316345D01*
X338254Y316345D02*
X338254Y309305D01*
X323086Y309305D01*
X323086Y316345D01*
X323086Y314836D02*
X338254Y314836D01*
X338254Y329045D02*
X323086Y329045D01*
X338254Y329045D02*
X338254Y322005D01*
X323086Y322005D01*
X323086Y329045D01*
X323086Y327536D02*
X338254Y327536D01*
X338254Y341745D02*
X323086Y341745D01*
X338254Y341745D02*
X338254Y334705D01*
X323086Y334705D01*
X323086Y341745D01*
X323086Y340236D02*
X338254Y340236D01*
X265864Y341745D02*
X250696Y341745D01*
X265864Y341745D02*
X265864Y334705D01*
X250696Y334705D01*
X250696Y341745D01*
X250696Y340236D02*
X265864Y340236D01*
X265864Y329045D02*
X250696Y329045D01*
X265864Y329045D02*
X265864Y322005D01*
X250696Y322005D01*
X250696Y329045D01*
X250696Y327536D02*
X265864Y327536D01*
X265864Y316345D02*
X250696Y316345D01*
X265864Y316345D02*
X265864Y309305D01*
X250696Y309305D01*
X250696Y316345D01*
X250696Y314836D02*
X265864Y314836D01*
X265864Y303645D02*
X250696Y303645D01*
X265864Y303645D02*
X265864Y296605D01*
X250696Y296605D01*
X250696Y303645D01*
X250696Y302136D02*
X265864Y302136D01*
D11*
X80440Y415298D02*
X80440Y424678D01*
X80440Y415298D02*
X71060Y415298D01*
X71060Y424678D01*
X80440Y424678D01*
X80440Y419917D02*
X71060Y419917D01*
X71060Y424536D02*
X80440Y424536D01*
X80440Y415152D02*
X80440Y405772D01*
X71060Y405772D01*
X71060Y415152D01*
X80440Y415152D01*
X80440Y410391D02*
X71060Y410391D01*
X71060Y415010D02*
X80440Y415010D01*
D12*
X75750Y410463D03*
D13*
X75750Y419988D03*
D11*
X76597Y436840D02*
X85977Y436840D01*
X85977Y427460D01*
X76597Y427460D01*
X76597Y436840D01*
X76597Y432079D02*
X85977Y432079D01*
X85977Y436698D02*
X76597Y436698D01*
X86123Y436840D02*
X95503Y436840D01*
X95503Y427460D01*
X86123Y427460D01*
X86123Y436840D01*
X86123Y432079D02*
X95503Y432079D01*
X95503Y436698D02*
X86123Y436698D01*
D17*
X90813Y432150D03*
D13*
X81287Y432150D03*
D18*
X165032Y422968D02*
X182518Y422968D01*
X182518Y407982D01*
X165032Y407982D01*
X165032Y422968D01*
X165032Y411496D02*
X182518Y411496D01*
X182518Y415010D02*
X165032Y415010D01*
X165032Y418524D02*
X182518Y418524D01*
X182518Y422038D02*
X165032Y422038D01*
X159018Y422968D02*
X141532Y422968D01*
X159018Y422968D02*
X159018Y407982D01*
X141532Y407982D01*
X141532Y422968D01*
X141532Y411496D02*
X159018Y411496D01*
X159018Y415010D02*
X141532Y415010D01*
X141532Y418524D02*
X159018Y418524D01*
X159018Y422038D02*
X141532Y422038D01*
X141532Y426982D02*
X159018Y426982D01*
X141532Y426982D02*
X141532Y441968D01*
X159018Y441968D01*
X159018Y426982D01*
X159018Y430496D02*
X141532Y430496D01*
X141532Y434010D02*
X159018Y434010D01*
X159018Y437524D02*
X141532Y437524D01*
X141532Y441038D02*
X159018Y441038D01*
X165032Y426982D02*
X182518Y426982D01*
X165032Y426982D02*
X165032Y441968D01*
X182518Y441968D01*
X182518Y426982D01*
X182518Y430496D02*
X165032Y430496D01*
X165032Y434010D02*
X182518Y434010D01*
X182518Y437524D02*
X165032Y437524D01*
X165032Y441038D02*
X182518Y441038D01*
D19*
X305700Y389700D02*
X320100Y389700D01*
X320100Y371300D01*
X305700Y371300D01*
X305700Y389700D01*
X305700Y374899D02*
X320100Y374899D01*
X320100Y378498D02*
X305700Y378498D01*
X305700Y382097D02*
X320100Y382097D01*
X320100Y385696D02*
X305700Y385696D01*
X305700Y389295D02*
X320100Y389295D01*
X310600Y411700D02*
X296200Y411700D01*
X310600Y411700D02*
X310600Y393300D01*
X296200Y393300D01*
X296200Y411700D01*
X296200Y396899D02*
X310600Y396899D01*
X310600Y400498D02*
X296200Y400498D01*
X296200Y404097D02*
X310600Y404097D01*
X310600Y407696D02*
X296200Y407696D01*
X296200Y411295D02*
X310600Y411295D01*
X315200Y411700D02*
X329600Y411700D01*
X329600Y393300D01*
X315200Y393300D01*
X315200Y411700D01*
X315200Y396899D02*
X329600Y396899D01*
X329600Y400498D02*
X315200Y400498D01*
X315200Y404097D02*
X329600Y404097D01*
X329600Y407696D02*
X315200Y407696D01*
X315200Y411295D02*
X329600Y411295D01*
X320100Y476000D02*
X305700Y476000D01*
X305700Y494400D01*
X320100Y494400D01*
X320100Y476000D01*
X320100Y479599D02*
X305700Y479599D01*
X305700Y483198D02*
X320100Y483198D01*
X320100Y486797D02*
X305700Y486797D01*
X305700Y490396D02*
X320100Y490396D01*
X320100Y493995D02*
X305700Y493995D01*
X315200Y454000D02*
X329600Y454000D01*
X315200Y454000D02*
X315200Y472400D01*
X329600Y472400D01*
X329600Y454000D01*
X329600Y457599D02*
X315200Y457599D01*
X315200Y461198D02*
X329600Y461198D01*
X329600Y464797D02*
X315200Y464797D01*
X315200Y468396D02*
X329600Y468396D01*
X329600Y471995D02*
X315200Y471995D01*
X310600Y454000D02*
X296200Y454000D01*
X296200Y472400D01*
X310600Y472400D01*
X310600Y454000D01*
X310600Y457599D02*
X296200Y457599D01*
X296200Y461198D02*
X310600Y461198D01*
X310600Y464797D02*
X296200Y464797D01*
X296200Y468396D02*
X310600Y468396D01*
X310600Y471995D02*
X296200Y471995D01*
D20*
X57006Y143912D03*
X11794Y143912D03*
X57006Y78888D03*
X11794Y78888D03*
X11594Y166088D03*
X56806Y166088D03*
X11594Y231112D03*
X56806Y231112D03*
D21*
X454750Y447550D02*
X460750Y447550D01*
X460750Y430550D01*
X454750Y430550D01*
X454750Y447550D01*
X454750Y436549D02*
X460750Y436549D01*
X460750Y442548D02*
X454750Y442548D01*
X454250Y447550D02*
X448250Y447550D01*
X454250Y447550D02*
X454250Y430550D01*
X448250Y430550D01*
X448250Y447550D01*
X448250Y436549D02*
X454250Y436549D01*
X454250Y442548D02*
X448250Y442548D01*
X447750Y447550D02*
X441750Y447550D01*
X447750Y447550D02*
X447750Y430550D01*
X441750Y430550D01*
X441750Y447550D01*
X441750Y436549D02*
X447750Y436549D01*
X447750Y442548D02*
X441750Y442548D01*
X441250Y447550D02*
X435250Y447550D01*
X441250Y447550D02*
X441250Y430550D01*
X435250Y430550D01*
X435250Y447550D01*
X435250Y436549D02*
X441250Y436549D01*
X441250Y442548D02*
X435250Y442548D01*
X434750Y447550D02*
X428750Y447550D01*
X434750Y447550D02*
X434750Y430550D01*
X428750Y430550D01*
X428750Y447550D01*
X428750Y436549D02*
X434750Y436549D01*
X434750Y442548D02*
X428750Y442548D01*
X428250Y447550D02*
X422250Y447550D01*
X428250Y447550D02*
X428250Y430550D01*
X422250Y430550D01*
X422250Y447550D01*
X422250Y436549D02*
X428250Y436549D01*
X428250Y442548D02*
X422250Y442548D01*
X421750Y447550D02*
X415750Y447550D01*
X421750Y447550D02*
X421750Y430550D01*
X415750Y430550D01*
X415750Y447550D01*
X415750Y436549D02*
X421750Y436549D01*
X421750Y442548D02*
X415750Y442548D01*
X415250Y447550D02*
X409250Y447550D01*
X415250Y447550D02*
X415250Y430550D01*
X409250Y430550D01*
X409250Y447550D01*
X409250Y436549D02*
X415250Y436549D01*
X415250Y442548D02*
X409250Y442548D01*
X408750Y447550D02*
X402750Y447550D01*
X408750Y447550D02*
X408750Y430550D01*
X402750Y430550D01*
X402750Y447550D01*
X402750Y436549D02*
X408750Y436549D01*
X408750Y442548D02*
X402750Y442548D01*
X402250Y447550D02*
X396250Y447550D01*
X402250Y447550D02*
X402250Y430550D01*
X396250Y430550D01*
X396250Y447550D01*
X396250Y436549D02*
X402250Y436549D01*
X402250Y442548D02*
X396250Y442548D01*
X395750Y447550D02*
X389750Y447550D01*
X395750Y447550D02*
X395750Y430550D01*
X389750Y430550D01*
X389750Y447550D01*
X389750Y436549D02*
X395750Y436549D01*
X395750Y442548D02*
X389750Y442548D01*
X389250Y447550D02*
X383250Y447550D01*
X389250Y447550D02*
X389250Y430550D01*
X383250Y430550D01*
X383250Y447550D01*
X383250Y436549D02*
X389250Y436549D01*
X389250Y442548D02*
X383250Y442548D01*
X382750Y447550D02*
X376750Y447550D01*
X382750Y447550D02*
X382750Y430550D01*
X376750Y430550D01*
X376750Y447550D01*
X376750Y436549D02*
X382750Y436549D01*
X382750Y442548D02*
X376750Y442548D01*
X376250Y447550D02*
X370250Y447550D01*
X376250Y447550D02*
X376250Y430550D01*
X370250Y430550D01*
X370250Y447550D01*
X370250Y436549D02*
X376250Y436549D01*
X376250Y442548D02*
X370250Y442548D01*
X370250Y375050D02*
X376250Y375050D01*
X376250Y358050D01*
X370250Y358050D01*
X370250Y375050D01*
X370250Y364049D02*
X376250Y364049D01*
X376250Y370048D02*
X370250Y370048D01*
X376750Y375050D02*
X382750Y375050D01*
X382750Y358050D01*
X376750Y358050D01*
X376750Y375050D01*
X376750Y364049D02*
X382750Y364049D01*
X382750Y370048D02*
X376750Y370048D01*
X383250Y375050D02*
X389250Y375050D01*
X389250Y358050D01*
X383250Y358050D01*
X383250Y375050D01*
X383250Y364049D02*
X389250Y364049D01*
X389250Y370048D02*
X383250Y370048D01*
X389750Y375050D02*
X395750Y375050D01*
X395750Y358050D01*
X389750Y358050D01*
X389750Y375050D01*
X389750Y364049D02*
X395750Y364049D01*
X395750Y370048D02*
X389750Y370048D01*
X396250Y375050D02*
X402250Y375050D01*
X402250Y358050D01*
X396250Y358050D01*
X396250Y375050D01*
X396250Y364049D02*
X402250Y364049D01*
X402250Y370048D02*
X396250Y370048D01*
X402750Y375050D02*
X408750Y375050D01*
X408750Y358050D01*
X402750Y358050D01*
X402750Y375050D01*
X402750Y364049D02*
X408750Y364049D01*
X408750Y370048D02*
X402750Y370048D01*
X409250Y375050D02*
X415250Y375050D01*
X415250Y358050D01*
X409250Y358050D01*
X409250Y375050D01*
X409250Y364049D02*
X415250Y364049D01*
X415250Y370048D02*
X409250Y370048D01*
X415750Y375050D02*
X421750Y375050D01*
X421750Y358050D01*
X415750Y358050D01*
X415750Y375050D01*
X415750Y364049D02*
X421750Y364049D01*
X421750Y370048D02*
X415750Y370048D01*
X422250Y375050D02*
X428250Y375050D01*
X428250Y358050D01*
X422250Y358050D01*
X422250Y375050D01*
X422250Y364049D02*
X428250Y364049D01*
X428250Y370048D02*
X422250Y370048D01*
X428750Y375050D02*
X434750Y375050D01*
X434750Y358050D01*
X428750Y358050D01*
X428750Y375050D01*
X428750Y364049D02*
X434750Y364049D01*
X434750Y370048D02*
X428750Y370048D01*
X435250Y375050D02*
X441250Y375050D01*
X441250Y358050D01*
X435250Y358050D01*
X435250Y375050D01*
X435250Y364049D02*
X441250Y364049D01*
X441250Y370048D02*
X435250Y370048D01*
X441750Y375050D02*
X447750Y375050D01*
X447750Y358050D01*
X441750Y358050D01*
X441750Y375050D01*
X441750Y364049D02*
X447750Y364049D01*
X447750Y370048D02*
X441750Y370048D01*
X448250Y375050D02*
X454250Y375050D01*
X454250Y358050D01*
X448250Y358050D01*
X448250Y375050D01*
X448250Y364049D02*
X454250Y364049D01*
X454250Y370048D02*
X448250Y370048D01*
X454750Y375050D02*
X460750Y375050D01*
X460750Y358050D01*
X454750Y358050D01*
X454750Y375050D01*
X454750Y364049D02*
X460750Y364049D01*
X460750Y370048D02*
X454750Y370048D01*
D22*
X533800Y316900D03*
X483000Y316900D03*
D23*
X572425Y336875D02*
X572425Y354725D01*
X592275Y354725D01*
X592275Y336875D01*
X572425Y336875D01*
X572425Y340024D02*
X592275Y340024D01*
X592275Y343173D02*
X572425Y343173D01*
X572425Y346322D02*
X592275Y346322D01*
X592275Y349471D02*
X572425Y349471D01*
X572425Y352620D02*
X592275Y352620D01*
X572425Y335725D02*
X572425Y317875D01*
X572425Y335725D02*
X592275Y335725D01*
X592275Y317875D01*
X572425Y317875D01*
X572425Y321024D02*
X592275Y321024D01*
X592275Y324173D02*
X572425Y324173D01*
X572425Y327322D02*
X592275Y327322D01*
X592275Y330471D02*
X572425Y330471D01*
X572425Y333620D02*
X592275Y333620D01*
X449275Y316225D02*
X449275Y298375D01*
X429425Y298375D01*
X429425Y316225D01*
X449275Y316225D01*
X449275Y301524D02*
X429425Y301524D01*
X429425Y304673D02*
X449275Y304673D01*
X449275Y307822D02*
X429425Y307822D01*
X429425Y310971D02*
X449275Y310971D01*
X449275Y314120D02*
X429425Y314120D01*
X449275Y317375D02*
X449275Y335225D01*
X449275Y317375D02*
X429425Y317375D01*
X429425Y335225D01*
X449275Y335225D01*
X449275Y320524D02*
X429425Y320524D01*
X429425Y323673D02*
X449275Y323673D01*
X449275Y326822D02*
X429425Y326822D01*
X429425Y329971D02*
X449275Y329971D01*
X449275Y333120D02*
X429425Y333120D01*
X402625Y474425D02*
X384775Y474425D01*
X384775Y494275D01*
X402625Y494275D01*
X402625Y474425D01*
X402625Y477574D02*
X384775Y477574D01*
X384775Y480723D02*
X402625Y480723D01*
X402625Y483872D02*
X384775Y483872D01*
X384775Y487021D02*
X402625Y487021D01*
X402625Y490170D02*
X384775Y490170D01*
X384775Y493319D02*
X402625Y493319D01*
X403775Y474425D02*
X421625Y474425D01*
X403775Y474425D02*
X403775Y494275D01*
X421625Y494275D01*
X421625Y474425D01*
X421625Y477574D02*
X403775Y477574D01*
X403775Y480723D02*
X421625Y480723D01*
X421625Y483872D02*
X403775Y483872D01*
X403775Y487021D02*
X421625Y487021D01*
X421625Y490170D02*
X403775Y490170D01*
X403775Y493319D02*
X421625Y493319D01*
D24*
X423700Y488000D02*
X423700Y471400D01*
X423700Y488000D02*
X440300Y488000D01*
X440300Y471400D01*
X423700Y471400D01*
X423700Y474799D02*
X440300Y474799D01*
X440300Y478198D02*
X423700Y478198D01*
X423700Y481597D02*
X440300Y481597D01*
X440300Y484996D02*
X423700Y484996D01*
X423700Y467000D02*
X423700Y450400D01*
X423700Y467000D02*
X440300Y467000D01*
X440300Y450400D01*
X423700Y450400D01*
X423700Y453799D02*
X440300Y453799D01*
X440300Y457198D02*
X423700Y457198D01*
X423700Y460597D02*
X440300Y460597D01*
X440300Y463996D02*
X423700Y463996D01*
D25*
X538500Y373300D03*
X563900Y373300D03*
D21*
X534600Y443500D02*
X534600Y465500D01*
X540600Y465500D01*
X540600Y443500D01*
X534600Y443500D01*
X534600Y449499D02*
X540600Y449499D01*
X540600Y455498D02*
X534600Y455498D01*
X534600Y461497D02*
X540600Y461497D01*
X528100Y465500D02*
X528100Y443500D01*
X528100Y465500D02*
X534100Y465500D01*
X534100Y443500D01*
X528100Y443500D01*
X528100Y449499D02*
X534100Y449499D01*
X534100Y455498D02*
X528100Y455498D01*
X528100Y461497D02*
X534100Y461497D01*
X521600Y465500D02*
X521600Y443500D01*
X521600Y465500D02*
X527600Y465500D01*
X527600Y443500D01*
X521600Y443500D01*
X521600Y449499D02*
X527600Y449499D01*
X527600Y455498D02*
X521600Y455498D01*
X521600Y461497D02*
X527600Y461497D01*
X515100Y465500D02*
X515100Y443500D01*
X515100Y465500D02*
X521100Y465500D01*
X521100Y443500D01*
X515100Y443500D01*
X515100Y449499D02*
X521100Y449499D01*
X521100Y455498D02*
X515100Y455498D01*
X515100Y461497D02*
X521100Y461497D01*
X508600Y465500D02*
X508600Y443500D01*
X508600Y465500D02*
X514600Y465500D01*
X514600Y443500D01*
X508600Y443500D01*
X508600Y449499D02*
X514600Y449499D01*
X514600Y455498D02*
X508600Y455498D01*
X508600Y461497D02*
X514600Y461497D01*
D26*
X496170Y471930D02*
X496170Y496070D01*
X496170Y471930D02*
X473030Y471930D01*
X473030Y496070D01*
X496170Y496070D01*
X496170Y474789D02*
X473030Y474789D01*
X473030Y477648D02*
X496170Y477648D01*
X496170Y480507D02*
X473030Y480507D01*
X473030Y483366D02*
X496170Y483366D01*
X496170Y486225D02*
X473030Y486225D01*
X473030Y489084D02*
X496170Y489084D01*
X496170Y491943D02*
X473030Y491943D01*
X473030Y494802D02*
X496170Y494802D01*
X576170Y496070D02*
X576170Y471930D01*
X553030Y471930D01*
X553030Y496070D01*
X576170Y496070D01*
X576170Y474789D02*
X553030Y474789D01*
X553030Y477648D02*
X576170Y477648D01*
X576170Y480507D02*
X553030Y480507D01*
X553030Y483366D02*
X576170Y483366D01*
X576170Y486225D02*
X553030Y486225D01*
X553030Y489084D02*
X576170Y489084D01*
X576170Y491943D02*
X553030Y491943D01*
X553030Y494802D02*
X576170Y494802D01*
D23*
X498225Y438525D02*
X498225Y420675D01*
X498225Y438525D02*
X518075Y438525D01*
X518075Y420675D01*
X498225Y420675D01*
X498225Y423824D02*
X518075Y423824D01*
X518075Y426973D02*
X498225Y426973D01*
X498225Y430122D02*
X518075Y430122D01*
X518075Y433271D02*
X498225Y433271D01*
X498225Y436420D02*
X518075Y436420D01*
X498225Y419525D02*
X498225Y401675D01*
X498225Y419525D02*
X518075Y419525D01*
X518075Y401675D01*
X498225Y401675D01*
X498225Y404824D02*
X518075Y404824D01*
X518075Y407973D02*
X498225Y407973D01*
X498225Y411122D02*
X518075Y411122D01*
X518075Y414271D02*
X498225Y414271D01*
X498225Y417420D02*
X518075Y417420D01*
X582775Y419625D02*
X582775Y401775D01*
X562925Y401775D01*
X562925Y419625D01*
X582775Y419625D01*
X582775Y404924D02*
X562925Y404924D01*
X562925Y408073D02*
X582775Y408073D01*
X582775Y411222D02*
X562925Y411222D01*
X562925Y414371D02*
X582775Y414371D01*
X582775Y417520D02*
X562925Y417520D01*
X582775Y420775D02*
X582775Y438625D01*
X582775Y420775D02*
X562925Y420775D01*
X562925Y438625D01*
X582775Y438625D01*
X582775Y423924D02*
X562925Y423924D01*
X562925Y427073D02*
X582775Y427073D01*
X582775Y430222D02*
X562925Y430222D01*
X562925Y433371D02*
X582775Y433371D01*
X582775Y436520D02*
X562925Y436520D01*
X359425Y453025D02*
X341575Y453025D01*
X341575Y473875D01*
X359425Y473875D01*
X359425Y453025D01*
X359425Y456174D02*
X341575Y456174D01*
X341575Y459323D02*
X359425Y459323D01*
X359425Y462472D02*
X341575Y462472D01*
X341575Y465621D02*
X359425Y465621D01*
X359425Y468770D02*
X341575Y468770D01*
X341575Y471919D02*
X359425Y471919D01*
X360575Y453025D02*
X378425Y453025D01*
X360575Y453025D02*
X360575Y473875D01*
X378425Y473875D01*
X378425Y453025D01*
X378425Y456174D02*
X360575Y456174D01*
X360575Y459323D02*
X378425Y459323D01*
X378425Y462472D02*
X360575Y462472D01*
X360575Y465621D02*
X378425Y465621D01*
X378425Y468770D02*
X360575Y468770D01*
X360575Y471919D02*
X378425Y471919D01*
X362475Y426625D02*
X362475Y408775D01*
X341625Y408775D01*
X341625Y426625D01*
X362475Y426625D01*
X362475Y411924D02*
X341625Y411924D01*
X341625Y415073D02*
X362475Y415073D01*
X362475Y418222D02*
X341625Y418222D01*
X341625Y421371D02*
X362475Y421371D01*
X362475Y424520D02*
X341625Y424520D01*
X362475Y427775D02*
X362475Y445625D01*
X362475Y427775D02*
X341625Y427775D01*
X341625Y445625D01*
X362475Y445625D01*
X362475Y430924D02*
X341625Y430924D01*
X341625Y434073D02*
X362475Y434073D01*
X362475Y437222D02*
X341625Y437222D01*
X341625Y440371D02*
X362475Y440371D01*
X362475Y443520D02*
X341625Y443520D01*
D24*
X600700Y444100D02*
X600700Y460700D01*
X600700Y444100D02*
X584100Y444100D01*
X584100Y460700D01*
X600700Y460700D01*
X600700Y447499D02*
X584100Y447499D01*
X584100Y450898D02*
X600700Y450898D01*
X600700Y454297D02*
X584100Y454297D01*
X584100Y457696D02*
X600700Y457696D01*
X600700Y465100D02*
X600700Y481700D01*
X600700Y465100D02*
X584100Y465100D01*
X584100Y481700D01*
X600700Y481700D01*
X600700Y468499D02*
X584100Y468499D01*
X584100Y471898D02*
X600700Y471898D01*
X600700Y475297D02*
X584100Y475297D01*
X584100Y478696D02*
X600700Y478696D01*
X449300Y470900D02*
X449300Y487500D01*
X465900Y487500D01*
X465900Y470900D01*
X449300Y470900D01*
X449300Y474299D02*
X465900Y474299D01*
X465900Y477698D02*
X449300Y477698D01*
X449300Y481097D02*
X465900Y481097D01*
X465900Y484496D02*
X449300Y484496D01*
X449300Y466500D02*
X449300Y449900D01*
X449300Y466500D02*
X465900Y466500D01*
X465900Y449900D01*
X449300Y449900D01*
X449300Y453299D02*
X465900Y453299D01*
X465900Y456698D02*
X449300Y456698D01*
X449300Y460097D02*
X465900Y460097D01*
X465900Y463496D02*
X449300Y463496D01*
D23*
X415225Y342575D02*
X397375Y342575D01*
X415225Y342575D02*
X415225Y322725D01*
X397375Y322725D01*
X397375Y342575D01*
X397375Y325874D02*
X415225Y325874D01*
X415225Y329023D02*
X397375Y329023D01*
X397375Y332172D02*
X415225Y332172D01*
X415225Y335321D02*
X397375Y335321D01*
X397375Y338470D02*
X415225Y338470D01*
X415225Y341619D02*
X397375Y341619D01*
X396225Y342575D02*
X378375Y342575D01*
X396225Y342575D02*
X396225Y322725D01*
X378375Y322725D01*
X378375Y342575D01*
X378375Y325874D02*
X396225Y325874D01*
X396225Y329023D02*
X378375Y329023D01*
X378375Y332172D02*
X396225Y332172D01*
X396225Y335321D02*
X378375Y335321D01*
X378375Y338470D02*
X396225Y338470D01*
X396225Y341619D02*
X378375Y341619D01*
X397375Y320975D02*
X415225Y320975D01*
X415225Y301125D01*
X397375Y301125D01*
X397375Y320975D01*
X397375Y304274D02*
X415225Y304274D01*
X415225Y307423D02*
X397375Y307423D01*
X397375Y310572D02*
X415225Y310572D01*
X415225Y313721D02*
X397375Y313721D01*
X397375Y316870D02*
X415225Y316870D01*
X415225Y320019D02*
X397375Y320019D01*
X396225Y320975D02*
X378375Y320975D01*
X396225Y320975D02*
X396225Y301125D01*
X378375Y301125D01*
X378375Y320975D01*
X378375Y304274D02*
X396225Y304274D01*
X396225Y307423D02*
X378375Y307423D01*
X378375Y310572D02*
X396225Y310572D01*
X396225Y313721D02*
X378375Y313721D01*
X378375Y316870D02*
X396225Y316870D01*
X396225Y320019D02*
X378375Y320019D01*
X342025Y386975D02*
X342025Y404825D01*
X361875Y404825D01*
X361875Y386975D01*
X342025Y386975D01*
X342025Y390124D02*
X361875Y390124D01*
X361875Y393273D02*
X342025Y393273D01*
X342025Y396422D02*
X361875Y396422D01*
X361875Y399571D02*
X342025Y399571D01*
X342025Y402720D02*
X361875Y402720D01*
X342025Y385825D02*
X342025Y367975D01*
X342025Y385825D02*
X361875Y385825D01*
X361875Y367975D01*
X342025Y367975D01*
X342025Y371124D02*
X361875Y371124D01*
X361875Y374273D02*
X342025Y374273D01*
X342025Y377422D02*
X361875Y377422D01*
X361875Y380571D02*
X342025Y380571D01*
X342025Y383720D02*
X361875Y383720D01*
X384775Y453225D02*
X402625Y453225D01*
X384775Y453225D02*
X384775Y473075D01*
X402625Y473075D01*
X402625Y453225D01*
X402625Y456374D02*
X384775Y456374D01*
X384775Y459523D02*
X402625Y459523D01*
X402625Y462672D02*
X384775Y462672D01*
X384775Y465821D02*
X402625Y465821D01*
X402625Y468970D02*
X384775Y468970D01*
X384775Y472119D02*
X402625Y472119D01*
X403775Y453225D02*
X421625Y453225D01*
X403775Y453225D02*
X403775Y473075D01*
X421625Y473075D01*
X421625Y453225D01*
X421625Y456374D02*
X403775Y456374D01*
X403775Y459523D02*
X421625Y459523D01*
X421625Y462672D02*
X403775Y462672D01*
X403775Y465821D02*
X421625Y465821D01*
X421625Y468970D02*
X403775Y468970D01*
X403775Y472119D02*
X421625Y472119D01*
D27*
X113958Y379319D02*
X106242Y379319D01*
X106242Y381881D01*
X113958Y381881D01*
X113958Y379319D01*
X113958Y374319D02*
X106242Y374319D01*
X106242Y376881D01*
X113958Y376881D01*
X113958Y374319D01*
X113958Y369319D02*
X106242Y369319D01*
X106242Y371881D01*
X113958Y371881D01*
X113958Y369319D01*
X113958Y364319D02*
X106242Y364319D01*
X106242Y366881D01*
X113958Y366881D01*
X113958Y364319D01*
X113958Y359319D02*
X106242Y359319D01*
X106242Y361881D01*
X113958Y361881D01*
X113958Y359319D01*
X113958Y354319D02*
X106242Y354319D01*
X106242Y356881D01*
X113958Y356881D01*
X113958Y354319D01*
X113958Y349319D02*
X106242Y349319D01*
X106242Y351881D01*
X113958Y351881D01*
X113958Y349319D01*
X113958Y344319D02*
X106242Y344319D01*
X106242Y346881D01*
X113958Y346881D01*
X113958Y344319D01*
X118881Y341958D02*
X118881Y334242D01*
X116319Y334242D01*
X116319Y341958D01*
X118881Y341958D01*
X118881Y340218D02*
X116319Y340218D01*
X123881Y341958D02*
X123881Y334242D01*
X121319Y334242D01*
X121319Y341958D01*
X123881Y341958D01*
X123881Y340218D02*
X121319Y340218D01*
X128881Y341958D02*
X128881Y334242D01*
X126319Y334242D01*
X126319Y341958D01*
X128881Y341958D01*
X128881Y340218D02*
X126319Y340218D01*
X133881Y341958D02*
X133881Y334242D01*
X131319Y334242D01*
X131319Y341958D01*
X133881Y341958D01*
X133881Y340218D02*
X131319Y340218D01*
X138881Y341958D02*
X138881Y334242D01*
X136319Y334242D01*
X136319Y341958D01*
X138881Y341958D01*
X138881Y340218D02*
X136319Y340218D01*
X143881Y341958D02*
X143881Y334242D01*
X141319Y334242D01*
X141319Y341958D01*
X143881Y341958D01*
X143881Y340218D02*
X141319Y340218D01*
X148881Y341958D02*
X148881Y334242D01*
X146319Y334242D01*
X146319Y341958D01*
X148881Y341958D01*
X148881Y340218D02*
X146319Y340218D01*
X153881Y341958D02*
X153881Y334242D01*
X151319Y334242D01*
X151319Y341958D01*
X153881Y341958D01*
X153881Y340218D02*
X151319Y340218D01*
X156242Y346881D02*
X163958Y346881D01*
X163958Y344319D01*
X156242Y344319D01*
X156242Y346881D01*
X156242Y351881D02*
X163958Y351881D01*
X163958Y349319D01*
X156242Y349319D01*
X156242Y351881D01*
X156242Y356881D02*
X163958Y356881D01*
X163958Y354319D01*
X156242Y354319D01*
X156242Y356881D01*
X156242Y361881D02*
X163958Y361881D01*
X163958Y359319D01*
X156242Y359319D01*
X156242Y361881D01*
X156242Y366881D02*
X163958Y366881D01*
X163958Y364319D01*
X156242Y364319D01*
X156242Y366881D01*
X156242Y371881D02*
X163958Y371881D01*
X163958Y369319D01*
X156242Y369319D01*
X156242Y371881D01*
X156242Y376881D02*
X163958Y376881D01*
X163958Y374319D01*
X156242Y374319D01*
X156242Y376881D01*
X156242Y381881D02*
X163958Y381881D01*
X163958Y379319D01*
X156242Y379319D01*
X156242Y381881D01*
X151319Y384242D02*
X151319Y391958D01*
X153881Y391958D01*
X153881Y384242D01*
X151319Y384242D01*
X151319Y390218D02*
X153881Y390218D01*
X146319Y391958D02*
X146319Y384242D01*
X146319Y391958D02*
X148881Y391958D01*
X148881Y384242D01*
X146319Y384242D01*
X146319Y390218D02*
X148881Y390218D01*
X141319Y391958D02*
X141319Y384242D01*
X141319Y391958D02*
X143881Y391958D01*
X143881Y384242D01*
X141319Y384242D01*
X141319Y390218D02*
X143881Y390218D01*
X136319Y391958D02*
X136319Y384242D01*
X136319Y391958D02*
X138881Y391958D01*
X138881Y384242D01*
X136319Y384242D01*
X136319Y390218D02*
X138881Y390218D01*
X131319Y391958D02*
X131319Y384242D01*
X131319Y391958D02*
X133881Y391958D01*
X133881Y384242D01*
X131319Y384242D01*
X131319Y390218D02*
X133881Y390218D01*
X126319Y391958D02*
X126319Y384242D01*
X126319Y391958D02*
X128881Y391958D01*
X128881Y384242D01*
X126319Y384242D01*
X126319Y390218D02*
X128881Y390218D01*
X121319Y391958D02*
X121319Y384242D01*
X121319Y391958D02*
X123881Y391958D01*
X123881Y384242D01*
X121319Y384242D01*
X121319Y390218D02*
X123881Y390218D01*
X116319Y391958D02*
X116319Y384242D01*
X116319Y391958D02*
X118881Y391958D01*
X118881Y384242D01*
X116319Y384242D01*
X116319Y390218D02*
X118881Y390218D01*
D28*
X116535Y344535D02*
X153665Y344535D01*
X116535Y344535D02*
X116535Y381665D01*
X153665Y381665D01*
X153665Y344535D01*
X153665Y346904D02*
X116535Y346904D01*
X116535Y349273D02*
X153665Y349273D01*
X153665Y351642D02*
X116535Y351642D01*
X116535Y354011D02*
X153665Y354011D01*
X153665Y356380D02*
X116535Y356380D01*
X116535Y358749D02*
X153665Y358749D01*
X153665Y361118D02*
X116535Y361118D01*
X116535Y363487D02*
X153665Y363487D01*
X153665Y365856D02*
X116535Y365856D01*
X116535Y368225D02*
X153665Y368225D01*
X153665Y370594D02*
X116535Y370594D01*
X116535Y372963D02*
X153665Y372963D01*
X153665Y375332D02*
X116535Y375332D01*
X116535Y377701D02*
X153665Y377701D01*
X153665Y380070D02*
X116535Y380070D01*
D29*
X123100Y375100D03*
X131100Y375100D03*
X139100Y375100D03*
X147100Y375100D03*
X147100Y367100D03*
X147100Y359100D03*
X147100Y351100D03*
X139100Y351100D03*
X131100Y351100D03*
X123100Y351100D03*
X123100Y359100D03*
X123100Y367100D03*
X131100Y367100D03*
X139100Y367100D03*
X139100Y359100D03*
X131100Y359100D03*
D23*
X95225Y361025D02*
X77375Y361025D01*
X95225Y361025D02*
X95225Y340175D01*
X77375Y340175D01*
X77375Y361025D01*
X77375Y343324D02*
X95225Y343324D01*
X95225Y346473D02*
X77375Y346473D01*
X77375Y349622D02*
X95225Y349622D01*
X95225Y352771D02*
X77375Y352771D01*
X77375Y355920D02*
X95225Y355920D01*
X95225Y359069D02*
X77375Y359069D01*
X76225Y361025D02*
X58375Y361025D01*
X76225Y361025D02*
X76225Y340175D01*
X58375Y340175D01*
X58375Y361025D01*
X58375Y343324D02*
X76225Y343324D01*
X76225Y346473D02*
X58375Y346473D01*
X58375Y349622D02*
X76225Y349622D01*
X76225Y352771D02*
X58375Y352771D01*
X58375Y355920D02*
X76225Y355920D01*
X76225Y359069D02*
X58375Y359069D01*
X105375Y314425D02*
X123225Y314425D01*
X123225Y293575D01*
X105375Y293575D01*
X105375Y314425D01*
X105375Y296724D02*
X123225Y296724D01*
X123225Y299873D02*
X105375Y299873D01*
X105375Y303022D02*
X123225Y303022D01*
X123225Y306171D02*
X105375Y306171D01*
X105375Y309320D02*
X123225Y309320D01*
X123225Y312469D02*
X105375Y312469D01*
X104225Y314425D02*
X86375Y314425D01*
X104225Y314425D02*
X104225Y293575D01*
X86375Y293575D01*
X86375Y314425D01*
X86375Y296724D02*
X104225Y296724D01*
X104225Y299873D02*
X86375Y299873D01*
X86375Y303022D02*
X104225Y303022D01*
X104225Y306171D02*
X86375Y306171D01*
X86375Y309320D02*
X104225Y309320D01*
X104225Y312469D02*
X86375Y312469D01*
X146475Y314425D02*
X164325Y314425D01*
X164325Y293575D01*
X146475Y293575D01*
X146475Y314425D01*
X146475Y296724D02*
X164325Y296724D01*
X164325Y299873D02*
X146475Y299873D01*
X146475Y303022D02*
X164325Y303022D01*
X164325Y306171D02*
X146475Y306171D01*
X146475Y309320D02*
X164325Y309320D01*
X164325Y312469D02*
X146475Y312469D01*
X145325Y314425D02*
X127475Y314425D01*
X145325Y314425D02*
X145325Y293575D01*
X127475Y293575D01*
X127475Y314425D01*
X127475Y296724D02*
X145325Y296724D01*
X145325Y299873D02*
X127475Y299873D01*
X127475Y303022D02*
X145325Y303022D01*
X145325Y306171D02*
X127475Y306171D01*
X127475Y309320D02*
X145325Y309320D01*
X145325Y312469D02*
X127475Y312469D01*
X103775Y423775D02*
X103775Y441625D01*
X124625Y441625D01*
X124625Y423775D01*
X103775Y423775D01*
X103775Y426924D02*
X124625Y426924D01*
X124625Y430073D02*
X103775Y430073D01*
X103775Y433222D02*
X124625Y433222D01*
X124625Y436371D02*
X103775Y436371D01*
X103775Y439520D02*
X124625Y439520D01*
X103775Y422625D02*
X103775Y404775D01*
X103775Y422625D02*
X124625Y422625D01*
X124625Y404775D01*
X103775Y404775D01*
X103775Y407924D02*
X124625Y407924D01*
X124625Y411073D02*
X103775Y411073D01*
X103775Y414222D02*
X124625Y414222D01*
X124625Y417371D02*
X103775Y417371D01*
X103775Y420520D02*
X124625Y420520D01*
X290025Y390825D02*
X290025Y372975D01*
X269175Y372975D01*
X269175Y390825D01*
X290025Y390825D01*
X290025Y376124D02*
X269175Y376124D01*
X269175Y379273D02*
X290025Y379273D01*
X290025Y382422D02*
X269175Y382422D01*
X269175Y385571D02*
X290025Y385571D01*
X290025Y388720D02*
X269175Y388720D01*
X290025Y391975D02*
X290025Y409825D01*
X290025Y391975D02*
X269175Y391975D01*
X269175Y409825D01*
X290025Y409825D01*
X290025Y395124D02*
X269175Y395124D01*
X269175Y398273D02*
X290025Y398273D01*
X290025Y401422D02*
X269175Y401422D01*
X269175Y404571D02*
X290025Y404571D01*
X290025Y407720D02*
X269175Y407720D01*
X245325Y335725D02*
X227475Y335725D01*
X245325Y335725D02*
X245325Y314875D01*
X227475Y314875D01*
X227475Y335725D01*
X227475Y318024D02*
X245325Y318024D01*
X245325Y321173D02*
X227475Y321173D01*
X227475Y324322D02*
X245325Y324322D01*
X245325Y327471D02*
X227475Y327471D01*
X227475Y330620D02*
X245325Y330620D01*
X245325Y333769D02*
X227475Y333769D01*
X226325Y335725D02*
X208475Y335725D01*
X226325Y335725D02*
X226325Y314875D01*
X208475Y314875D01*
X208475Y335725D01*
X208475Y318024D02*
X226325Y318024D01*
X226325Y321173D02*
X208475Y321173D01*
X208475Y324322D02*
X226325Y324322D01*
X226325Y327471D02*
X208475Y327471D01*
X208475Y330620D02*
X226325Y330620D01*
X226325Y333769D02*
X208475Y333769D01*
X290075Y370525D02*
X307925Y370525D01*
X307925Y349675D01*
X290075Y349675D01*
X290075Y370525D01*
X290075Y352824D02*
X307925Y352824D01*
X307925Y355973D02*
X290075Y355973D01*
X290075Y359122D02*
X307925Y359122D01*
X307925Y362271D02*
X290075Y362271D01*
X290075Y365420D02*
X307925Y365420D01*
X307925Y368569D02*
X290075Y368569D01*
X288925Y370525D02*
X271075Y370525D01*
X288925Y370525D02*
X288925Y349675D01*
X271075Y349675D01*
X271075Y370525D01*
X271075Y352824D02*
X288925Y352824D01*
X288925Y355973D02*
X271075Y355973D01*
X271075Y359122D02*
X288925Y359122D01*
X288925Y362271D02*
X271075Y362271D01*
X271075Y365420D02*
X288925Y365420D01*
X288925Y368569D02*
X271075Y368569D01*
X312875Y433375D02*
X312875Y451225D01*
X333725Y451225D01*
X333725Y433375D01*
X312875Y433375D01*
X312875Y436524D02*
X333725Y436524D01*
X333725Y439673D02*
X312875Y439673D01*
X312875Y442822D02*
X333725Y442822D01*
X333725Y445971D02*
X312875Y445971D01*
X312875Y449120D02*
X333725Y449120D01*
X312875Y432225D02*
X312875Y414375D01*
X312875Y432225D02*
X333725Y432225D01*
X333725Y414375D01*
X312875Y414375D01*
X312875Y417524D02*
X333725Y417524D01*
X333725Y420673D02*
X312875Y420673D01*
X312875Y423822D02*
X333725Y423822D01*
X333725Y426971D02*
X312875Y426971D01*
X312875Y430120D02*
X333725Y430120D01*
X312025Y432225D02*
X312025Y414375D01*
X291175Y414375D01*
X291175Y432225D01*
X312025Y432225D01*
X312025Y417524D02*
X291175Y417524D01*
X291175Y420673D02*
X312025Y420673D01*
X312025Y423822D02*
X291175Y423822D01*
X291175Y426971D02*
X312025Y426971D01*
X312025Y430120D02*
X291175Y430120D01*
X312025Y433375D02*
X312025Y451225D01*
X312025Y433375D02*
X291175Y433375D01*
X291175Y451225D01*
X312025Y451225D01*
X312025Y436524D02*
X291175Y436524D01*
X291175Y439673D02*
X312025Y439673D01*
X312025Y442822D02*
X291175Y442822D01*
X291175Y445971D02*
X312025Y445971D01*
X312025Y449120D02*
X291175Y449120D01*
X269275Y451325D02*
X269275Y433475D01*
X269275Y451325D02*
X290125Y451325D01*
X290125Y433475D01*
X269275Y433475D01*
X269275Y436624D02*
X290125Y436624D01*
X290125Y439773D02*
X269275Y439773D01*
X269275Y442922D02*
X290125Y442922D01*
X290125Y446071D02*
X269275Y446071D01*
X269275Y449220D02*
X290125Y449220D01*
X269275Y432325D02*
X269275Y414475D01*
X269275Y432325D02*
X290125Y432325D01*
X290125Y414475D01*
X269275Y414475D01*
X269275Y417624D02*
X290125Y417624D01*
X290125Y420773D02*
X269275Y420773D01*
X269275Y423922D02*
X290125Y423922D01*
X290125Y427071D02*
X269275Y427071D01*
X269275Y430220D02*
X290125Y430220D01*
X269675Y474875D02*
X269675Y492725D01*
X289525Y492725D01*
X289525Y474875D01*
X269675Y474875D01*
X269675Y478024D02*
X289525Y478024D01*
X289525Y481173D02*
X269675Y481173D01*
X269675Y484322D02*
X289525Y484322D01*
X289525Y487471D02*
X269675Y487471D01*
X269675Y490620D02*
X289525Y490620D01*
X269675Y473725D02*
X269675Y455875D01*
X269675Y473725D02*
X289525Y473725D01*
X289525Y455875D01*
X269675Y455875D01*
X269675Y459024D02*
X289525Y459024D01*
X289525Y462173D02*
X269675Y462173D01*
X269675Y465322D02*
X289525Y465322D01*
X289525Y468471D02*
X269675Y468471D01*
X269675Y471620D02*
X289525Y471620D01*
D30*
X579400Y204550D03*
X519710Y184230D03*
X639090Y184230D03*
X639090Y62310D03*
X519710Y62310D03*
D31*
X677400Y218900D03*
X677400Y142700D03*
X586700Y294200D03*
X586700Y243400D03*
X586700Y268800D03*
X447500Y274100D03*
X447500Y248700D03*
X523700Y248700D03*
X523700Y274100D03*
D32*
X567300Y258700D02*
X567300Y246700D01*
X551300Y246700D01*
X551300Y258700D01*
X567300Y258700D01*
X567300Y250699D02*
X551300Y250699D01*
X551300Y254698D02*
X567300Y254698D01*
X567300Y258697D02*
X551300Y258697D01*
X567300Y264700D02*
X567300Y276700D01*
X567300Y264700D02*
X551300Y264700D01*
X551300Y276700D01*
X567300Y276700D01*
X567300Y268699D02*
X551300Y268699D01*
X551300Y272698D02*
X567300Y272698D01*
X567300Y276697D02*
X551300Y276697D01*
X533100Y276700D02*
X533100Y264700D01*
X533100Y276700D02*
X549100Y276700D01*
X549100Y264700D01*
X533100Y264700D01*
X533100Y268699D02*
X549100Y268699D01*
X549100Y272698D02*
X533100Y272698D01*
X533100Y276697D02*
X549100Y276697D01*
X533100Y258700D02*
X533100Y246700D01*
X533100Y258700D02*
X549100Y258700D01*
X549100Y246700D01*
X533100Y246700D01*
X533100Y250699D02*
X549100Y250699D01*
X549100Y254698D02*
X533100Y254698D01*
X533100Y258697D02*
X549100Y258697D01*
X438000Y258500D02*
X438000Y246500D01*
X422000Y246500D01*
X422000Y258500D01*
X438000Y258500D01*
X438000Y250499D02*
X422000Y250499D01*
X422000Y254498D02*
X438000Y254498D01*
X438000Y258497D02*
X422000Y258497D01*
X438000Y264500D02*
X438000Y276500D01*
X438000Y264500D02*
X422000Y264500D01*
X422000Y276500D01*
X438000Y276500D01*
X438000Y268499D02*
X422000Y268499D01*
X422000Y272498D02*
X438000Y272498D01*
X438000Y276497D02*
X422000Y276497D01*
D24*
X669100Y132200D02*
X669100Y115600D01*
X669100Y132200D02*
X685700Y132200D01*
X685700Y115600D01*
X669100Y115600D01*
X669100Y118999D02*
X685700Y118999D01*
X685700Y122398D02*
X669100Y122398D01*
X669100Y125797D02*
X685700Y125797D01*
X685700Y129196D02*
X669100Y129196D01*
X669100Y111200D02*
X669100Y94600D01*
X669100Y111200D02*
X685700Y111200D01*
X685700Y94600D01*
X669100Y94600D01*
X669100Y97999D02*
X685700Y97999D01*
X685700Y101398D02*
X669100Y101398D01*
X669100Y104797D02*
X685700Y104797D01*
X685700Y108196D02*
X669100Y108196D01*
D23*
X770075Y374313D02*
X787925Y374313D01*
X787925Y354463D01*
X770075Y354463D01*
X770075Y374313D01*
X770075Y357612D02*
X787925Y357612D01*
X787925Y360761D02*
X770075Y360761D01*
X770075Y363910D02*
X787925Y363910D01*
X787925Y367059D02*
X770075Y367059D01*
X770075Y370208D02*
X787925Y370208D01*
X787925Y373357D02*
X770075Y373357D01*
X768925Y374313D02*
X751075Y374313D01*
X768925Y374313D02*
X768925Y354463D01*
X751075Y354463D01*
X751075Y374313D01*
X751075Y357612D02*
X768925Y357612D01*
X768925Y360761D02*
X751075Y360761D01*
X751075Y363910D02*
X768925Y363910D01*
X768925Y367059D02*
X751075Y367059D01*
X751075Y370208D02*
X768925Y370208D01*
X768925Y373357D02*
X751075Y373357D01*
D25*
X694300Y345700D03*
X668900Y345700D03*
D33*
X707251Y345395D02*
X707251Y328433D01*
X707251Y345395D02*
X734373Y345395D01*
X734373Y328433D01*
X707251Y328433D01*
X707251Y331663D02*
X734373Y331663D01*
X734373Y334893D02*
X707251Y334893D01*
X707251Y338123D02*
X734373Y338123D01*
X734373Y341353D02*
X707251Y341353D01*
X707251Y344583D02*
X734373Y344583D01*
X707251Y322281D02*
X707251Y305319D01*
X707251Y322281D02*
X734373Y322281D01*
X734373Y305319D01*
X707251Y305319D01*
X707251Y308549D02*
X734373Y308549D01*
X734373Y311779D02*
X707251Y311779D01*
X707251Y315009D02*
X734373Y315009D01*
X734373Y318239D02*
X707251Y318239D01*
X707251Y321469D02*
X734373Y321469D01*
X707251Y299167D02*
X707251Y282205D01*
X707251Y299167D02*
X734373Y299167D01*
X734373Y282205D01*
X707251Y282205D01*
X707251Y285435D02*
X734373Y285435D01*
X734373Y288665D02*
X707251Y288665D01*
X707251Y291895D02*
X734373Y291895D01*
X734373Y295125D02*
X707251Y295125D01*
X707251Y298355D02*
X734373Y298355D01*
D34*
X769140Y293150D02*
X769140Y334450D01*
X796440Y334450D01*
X796440Y293150D01*
X769140Y293150D01*
X769140Y295849D02*
X796440Y295849D01*
X796440Y298548D02*
X769140Y298548D01*
X769140Y301247D02*
X796440Y301247D01*
X796440Y303946D02*
X769140Y303946D01*
X769140Y306645D02*
X796440Y306645D01*
X796440Y309344D02*
X769140Y309344D01*
X769140Y312043D02*
X796440Y312043D01*
X796440Y314742D02*
X769140Y314742D01*
X769140Y317441D02*
X796440Y317441D01*
X796440Y320140D02*
X769140Y320140D01*
X769140Y322839D02*
X796440Y322839D01*
X796440Y325538D02*
X769140Y325538D01*
X769140Y328237D02*
X796440Y328237D01*
X796440Y330936D02*
X769140Y330936D01*
X769140Y333635D02*
X796440Y333635D01*
D23*
X680325Y298087D02*
X662475Y298087D01*
X662475Y317937D01*
X680325Y317937D01*
X680325Y298087D01*
X680325Y301236D02*
X662475Y301236D01*
X662475Y304385D02*
X680325Y304385D01*
X680325Y307534D02*
X662475Y307534D01*
X662475Y310683D02*
X680325Y310683D01*
X680325Y313832D02*
X662475Y313832D01*
X662475Y316981D02*
X680325Y316981D01*
X681475Y298087D02*
X699325Y298087D01*
X681475Y298087D02*
X681475Y317937D01*
X699325Y317937D01*
X699325Y298087D01*
X699325Y301236D02*
X681475Y301236D01*
X681475Y304385D02*
X699325Y304385D01*
X699325Y307534D02*
X681475Y307534D01*
X681475Y310683D02*
X699325Y310683D01*
X699325Y313832D02*
X681475Y313832D01*
X681475Y316981D02*
X699325Y316981D01*
D24*
X657200Y367688D02*
X640600Y367688D01*
X657200Y367688D02*
X657200Y351088D01*
X640600Y351088D01*
X640600Y367688D01*
X640600Y354487D02*
X657200Y354487D01*
X657200Y357886D02*
X640600Y357886D01*
X640600Y361285D02*
X657200Y361285D01*
X657200Y364684D02*
X640600Y364684D01*
X636200Y367688D02*
X619600Y367688D01*
X636200Y367688D02*
X636200Y351088D01*
X619600Y351088D01*
X619600Y367688D01*
X619600Y354487D02*
X636200Y354487D01*
X636200Y357886D02*
X619600Y357886D01*
X619600Y361285D02*
X636200Y361285D01*
X636200Y364684D02*
X619600Y364684D01*
D23*
X618875Y380087D02*
X636725Y380087D01*
X618875Y380087D02*
X618875Y399937D01*
X636725Y399937D01*
X636725Y380087D01*
X636725Y383236D02*
X618875Y383236D01*
X618875Y386385D02*
X636725Y386385D01*
X636725Y389534D02*
X618875Y389534D01*
X618875Y392683D02*
X636725Y392683D01*
X636725Y395832D02*
X618875Y395832D01*
X618875Y398981D02*
X636725Y398981D01*
X637875Y380087D02*
X655725Y380087D01*
X637875Y380087D02*
X637875Y399937D01*
X655725Y399937D01*
X655725Y380087D01*
X655725Y383236D02*
X637875Y383236D01*
X637875Y386385D02*
X655725Y386385D01*
X655725Y389534D02*
X637875Y389534D01*
X637875Y392683D02*
X655725Y392683D01*
X655725Y395832D02*
X637875Y395832D01*
X637875Y398981D02*
X655725Y398981D01*
D35*
X660390Y427890D02*
X724410Y427890D01*
X660390Y427890D02*
X660390Y495910D01*
X724410Y495910D01*
X724410Y427890D01*
X724410Y429869D02*
X660390Y429869D01*
X660390Y431848D02*
X724410Y431848D01*
X724410Y433827D02*
X660390Y433827D01*
X660390Y435806D02*
X724410Y435806D01*
X724410Y437785D02*
X660390Y437785D01*
X660390Y439764D02*
X724410Y439764D01*
X724410Y441743D02*
X660390Y441743D01*
X660390Y443722D02*
X724410Y443722D01*
X724410Y445701D02*
X660390Y445701D01*
X660390Y447680D02*
X724410Y447680D01*
X724410Y449659D02*
X660390Y449659D01*
X660390Y451638D02*
X724410Y451638D01*
X724410Y453617D02*
X660390Y453617D01*
X660390Y455596D02*
X724410Y455596D01*
X724410Y457575D02*
X660390Y457575D01*
X660390Y459554D02*
X724410Y459554D01*
X724410Y461533D02*
X660390Y461533D01*
X660390Y463512D02*
X724410Y463512D01*
X724410Y465491D02*
X660390Y465491D01*
X660390Y467470D02*
X724410Y467470D01*
X724410Y469449D02*
X660390Y469449D01*
X660390Y471428D02*
X724410Y471428D01*
X724410Y473407D02*
X660390Y473407D01*
X660390Y475386D02*
X724410Y475386D01*
X724410Y477365D02*
X660390Y477365D01*
X660390Y479344D02*
X724410Y479344D01*
X724410Y481323D02*
X660390Y481323D01*
X660390Y483302D02*
X724410Y483302D01*
X724410Y485281D02*
X660390Y485281D01*
X660390Y487260D02*
X724410Y487260D01*
X724410Y489239D02*
X660390Y489239D01*
X660390Y491218D02*
X724410Y491218D01*
X724410Y493197D02*
X660390Y493197D01*
X660390Y495176D02*
X724410Y495176D01*
D36*
X680040Y372660D02*
X659160Y372660D01*
X659160Y407540D01*
X680040Y407540D01*
X680040Y372660D01*
X680040Y375779D02*
X659160Y375779D01*
X659160Y378898D02*
X680040Y378898D01*
X680040Y382017D02*
X659160Y382017D01*
X659160Y385136D02*
X680040Y385136D01*
X680040Y388255D02*
X659160Y388255D01*
X659160Y391374D02*
X680040Y391374D01*
X680040Y394493D02*
X659160Y394493D01*
X659160Y397612D02*
X680040Y397612D01*
X680040Y400731D02*
X659160Y400731D01*
X659160Y403850D02*
X680040Y403850D01*
X680040Y406969D02*
X659160Y406969D01*
X704760Y372660D02*
X725640Y372660D01*
X704760Y372660D02*
X704760Y407540D01*
X725640Y407540D01*
X725640Y372660D01*
X725640Y375779D02*
X704760Y375779D01*
X704760Y378898D02*
X725640Y378898D01*
X725640Y382017D02*
X704760Y382017D01*
X704760Y385136D02*
X725640Y385136D01*
X725640Y388255D02*
X704760Y388255D01*
X704760Y391374D02*
X725640Y391374D01*
X725640Y394493D02*
X704760Y394493D01*
X704760Y397612D02*
X725640Y397612D01*
X725640Y400731D02*
X704760Y400731D01*
X704760Y403850D02*
X725640Y403850D01*
X725640Y406969D02*
X704760Y406969D01*
D25*
X626100Y462000D03*
X626100Y436600D03*
D37*
X30200Y469800D03*
X769900Y469700D03*
X30100Y30000D03*
X769900Y29900D03*
D20*
X769500Y400500D03*
X769500Y425900D03*
D38*
X770850Y244900D03*
X770850Y194100D03*
X770850Y143300D03*
X770850Y92500D03*
D30*
X151800Y204250D03*
X92110Y183930D03*
X211490Y183930D03*
X211490Y62010D03*
X92110Y62010D03*
D31*
X258000Y219100D03*
X258000Y142900D03*
X196100Y294100D03*
X196100Y243300D03*
X196100Y268700D03*
X61100Y274300D03*
X61100Y248900D03*
X137300Y248900D03*
X137300Y274300D03*
D32*
X177100Y258500D02*
X177100Y246500D01*
X161100Y246500D01*
X161100Y258500D01*
X177100Y258500D01*
X177100Y250499D02*
X161100Y250499D01*
X161100Y254498D02*
X177100Y254498D01*
X177100Y258497D02*
X161100Y258497D01*
X177100Y264500D02*
X177100Y276500D01*
X177100Y264500D02*
X161100Y264500D01*
X161100Y276500D01*
X177100Y276500D01*
X177100Y268499D02*
X161100Y268499D01*
X161100Y272498D02*
X177100Y272498D01*
X177100Y276497D02*
X161100Y276497D01*
X145500Y276500D02*
X145500Y264500D01*
X145500Y276500D02*
X161500Y276500D01*
X161500Y264500D01*
X145500Y264500D01*
X145500Y268499D02*
X161500Y268499D01*
X161500Y272498D02*
X145500Y272498D01*
X145500Y276497D02*
X161500Y276497D01*
X145500Y258500D02*
X145500Y246500D01*
X145500Y258500D02*
X161500Y258500D01*
X161500Y246500D01*
X145500Y246500D01*
X145500Y250499D02*
X161500Y250499D01*
X161500Y254498D02*
X145500Y254498D01*
X145500Y258497D02*
X161500Y258497D01*
X53100Y258400D02*
X53100Y246400D01*
X37100Y246400D01*
X37100Y258400D01*
X53100Y258400D01*
X53100Y250399D02*
X37100Y250399D01*
X37100Y254398D02*
X53100Y254398D01*
X53100Y258397D02*
X37100Y258397D01*
X53100Y264400D02*
X53100Y276400D01*
X53100Y264400D02*
X37100Y264400D01*
X37100Y276400D01*
X53100Y276400D01*
X53100Y268399D02*
X37100Y268399D01*
X37100Y272398D02*
X53100Y272398D01*
X53100Y276397D02*
X37100Y276397D01*
D24*
X249800Y132200D02*
X249800Y115600D01*
X249800Y132200D02*
X266400Y132200D01*
X266400Y115600D01*
X249800Y115600D01*
X249800Y118999D02*
X266400Y118999D01*
X266400Y122398D02*
X249800Y122398D01*
X249800Y125797D02*
X266400Y125797D01*
X266400Y129196D02*
X249800Y129196D01*
X249800Y111200D02*
X249800Y94600D01*
X249800Y111200D02*
X266400Y111200D01*
X266400Y94600D01*
X249800Y94600D01*
X249800Y97999D02*
X266400Y97999D01*
X266400Y101398D02*
X249800Y101398D01*
X249800Y104797D02*
X266400Y104797D01*
X266400Y108196D02*
X249800Y108196D01*
D30*
X366800Y203850D03*
X307110Y183530D03*
X426490Y183530D03*
X426490Y61610D03*
X307110Y61610D03*
D31*
X473100Y218900D03*
X473100Y142700D03*
X391900Y294000D03*
X391900Y243200D03*
X391900Y268600D03*
X254800Y274100D03*
X254800Y248700D03*
X331000Y248700D03*
X331000Y274100D03*
D32*
X372200Y258500D02*
X372200Y246500D01*
X356200Y246500D01*
X356200Y258500D01*
X372200Y258500D01*
X372200Y250499D02*
X356200Y250499D01*
X356200Y254498D02*
X372200Y254498D01*
X372200Y258497D02*
X356200Y258497D01*
X372200Y264500D02*
X372200Y276500D01*
X372200Y264500D02*
X356200Y264500D01*
X356200Y276500D01*
X372200Y276500D01*
X372200Y268499D02*
X356200Y268499D01*
X356200Y272498D02*
X372200Y272498D01*
X372200Y276497D02*
X356200Y276497D01*
X340300Y276500D02*
X340300Y264500D01*
X340300Y276500D02*
X356300Y276500D01*
X356300Y264500D01*
X340300Y264500D01*
X340300Y268499D02*
X356300Y268499D01*
X356300Y272498D02*
X340300Y272498D01*
X340300Y276497D02*
X356300Y276497D01*
X340300Y258500D02*
X340300Y246500D01*
X340300Y258500D02*
X356300Y258500D01*
X356300Y246500D01*
X340300Y246500D01*
X340300Y250499D02*
X356300Y250499D01*
X356300Y254498D02*
X340300Y254498D01*
X340300Y258497D02*
X356300Y258497D01*
X242700Y258600D02*
X242700Y246600D01*
X226700Y246600D01*
X226700Y258600D01*
X242700Y258600D01*
X242700Y250599D02*
X226700Y250599D01*
X226700Y254598D02*
X242700Y254598D01*
X242700Y258597D02*
X226700Y258597D01*
X242700Y264600D02*
X242700Y276600D01*
X242700Y264600D02*
X226700Y264600D01*
X226700Y276600D01*
X242700Y276600D01*
X242700Y268599D02*
X226700Y268599D01*
X226700Y272598D02*
X242700Y272598D01*
X242700Y276597D02*
X226700Y276597D01*
D24*
X464400Y132200D02*
X464400Y115600D01*
X464400Y132200D02*
X481000Y132200D01*
X481000Y115600D01*
X464400Y115600D01*
X464400Y118999D02*
X481000Y118999D01*
X481000Y122398D02*
X464400Y122398D01*
X464400Y125797D02*
X481000Y125797D01*
X481000Y129196D02*
X464400Y129196D01*
X464400Y111200D02*
X464400Y94600D01*
X464400Y111200D02*
X481000Y111200D01*
X481000Y94600D01*
X464400Y94600D01*
X464400Y97999D02*
X481000Y97999D01*
X481000Y101398D02*
X464400Y101398D01*
X464400Y104797D02*
X481000Y104797D01*
X481000Y108196D02*
X464400Y108196D01*
X640400Y349600D02*
X657000Y349600D01*
X657000Y333000D01*
X640400Y333000D01*
X640400Y349600D01*
X640400Y336399D02*
X657000Y336399D01*
X657000Y339798D02*
X640400Y339798D01*
X640400Y343197D02*
X657000Y343197D01*
X657000Y346596D02*
X640400Y346596D01*
X636000Y349600D02*
X619400Y349600D01*
X636000Y349600D02*
X636000Y333000D01*
X619400Y333000D01*
X619400Y349600D01*
X619400Y336399D02*
X636000Y336399D01*
X636000Y339798D02*
X619400Y339798D01*
X619400Y343197D02*
X636000Y343197D01*
X636000Y346596D02*
X619400Y346596D01*
D23*
X615025Y361675D02*
X615025Y379525D01*
X615025Y361675D02*
X595175Y361675D01*
X595175Y379525D01*
X615025Y379525D01*
X615025Y364824D02*
X595175Y364824D01*
X595175Y367973D02*
X615025Y367973D01*
X615025Y371122D02*
X595175Y371122D01*
X595175Y374271D02*
X615025Y374271D01*
X615025Y377420D02*
X595175Y377420D01*
X615025Y380675D02*
X615025Y398525D01*
X615025Y380675D02*
X595175Y380675D01*
X595175Y398525D01*
X615025Y398525D01*
X615025Y383824D02*
X595175Y383824D01*
X595175Y386973D02*
X615025Y386973D01*
X615025Y390122D02*
X595175Y390122D01*
X595175Y393271D02*
X615025Y393271D01*
X615025Y396420D02*
X595175Y396420D01*
D24*
X640100Y332100D02*
X656700Y332100D01*
X656700Y315500D01*
X640100Y315500D01*
X640100Y332100D01*
X640100Y318899D02*
X656700Y318899D01*
X656700Y322298D02*
X640100Y322298D01*
X640100Y325697D02*
X656700Y325697D01*
X656700Y329096D02*
X640100Y329096D01*
X635700Y332100D02*
X619100Y332100D01*
X635700Y332100D02*
X635700Y315500D01*
X619100Y315500D01*
X619100Y332100D01*
X619100Y318899D02*
X635700Y318899D01*
X635700Y322298D02*
X619100Y322298D01*
X619100Y325697D02*
X635700Y325697D01*
X635700Y329096D02*
X619100Y329096D01*
D23*
X595075Y337075D02*
X595075Y354925D01*
X614925Y354925D01*
X614925Y337075D01*
X595075Y337075D01*
X595075Y340224D02*
X614925Y340224D01*
X614925Y343373D02*
X595075Y343373D01*
X595075Y346522D02*
X614925Y346522D01*
X614925Y349671D02*
X595075Y349671D01*
X595075Y352820D02*
X614925Y352820D01*
X595075Y335925D02*
X595075Y318075D01*
X595075Y335925D02*
X614925Y335925D01*
X614925Y318075D01*
X595075Y318075D01*
X595075Y321224D02*
X614925Y321224D01*
X614925Y324373D02*
X595075Y324373D01*
X595075Y327522D02*
X614925Y327522D01*
X614925Y330671D02*
X595075Y330671D01*
X595075Y333820D02*
X614925Y333820D01*
X604025Y401775D02*
X604025Y419625D01*
X604025Y401775D02*
X584175Y401775D01*
X584175Y419625D01*
X604025Y419625D01*
X604025Y404924D02*
X584175Y404924D01*
X584175Y408073D02*
X604025Y408073D01*
X604025Y411222D02*
X584175Y411222D01*
X584175Y414371D02*
X604025Y414371D01*
X604025Y417520D02*
X584175Y417520D01*
X604025Y420775D02*
X604025Y438625D01*
X604025Y420775D02*
X584175Y420775D01*
X584175Y438625D01*
X604025Y438625D01*
X604025Y423924D02*
X584175Y423924D01*
X584175Y427073D02*
X604025Y427073D01*
X604025Y430222D02*
X584175Y430222D01*
X584175Y433371D02*
X604025Y433371D01*
X604025Y436520D02*
X584175Y436520D01*
D20*
X230200Y467200D03*
X255600Y467200D03*
X25400Y408400D03*
X25400Y383000D03*
X25400Y357600D03*
X25400Y332200D03*
X25400Y306800D03*
D39*
X21000Y261400D03*
X215600Y433400D03*
X215700Y416700D03*
X48700Y306200D03*
X671000Y485000D03*
X693000Y485000D03*
X714000Y485000D03*
X671000Y463000D03*
X693000Y464000D03*
X714000Y464000D03*
X671000Y443000D03*
X693000Y443000D03*
X714000Y443000D03*
X700500Y290800D03*
X263600Y423400D03*
X347500Y319200D03*
X172000Y292400D03*
X241900Y304700D03*
X79300Y303700D03*
X67300Y369900D03*
X476800Y439300D03*
X295600Y376700D03*
X466000Y439300D03*
X263700Y411300D03*
X486000Y409300D03*
X487700Y439400D03*
X333800Y463200D03*
X189900Y369200D03*
X177500Y341700D03*
X205600Y385400D03*
X187900Y326900D03*
X189800Y358000D03*
X227200Y342100D03*
X166900Y318000D03*
X263100Y361900D03*
X239100Y424500D03*
X108600Y397500D03*
X328900Y353200D03*
X243000Y212300D03*
X405800Y349500D03*
X552900Y442500D03*
X552900Y404100D03*
X423400Y311000D03*
X552900Y415600D03*
X423400Y332600D03*
X486000Y420800D03*
X385900Y348800D03*
X168000Y387400D03*
X80500Y374100D03*
X166800Y329300D03*
X92400Y329800D03*
X214600Y295000D03*
X693900Y123800D03*
X275500Y103800D03*
X488600Y103400D03*
M02*
